<svg width="512" height="512" viewBox="0 0 512 512" fill="none" xmlns="http://www.w3.org/2000/svg">
<g clip-path="url(#clip0)">
<path d="M435.156 63.304C435.156 167.041 522.161 181.624 492.445 239.954C463.43 296.91 381.437 242.946 344.083 285.249C298.529 336.838 374.503 467.285 242.223 443.356C182.637 432.577 157.856 529.169 90.0691 509.297C-65.3499 463.736 167 331.718 81.1031 249.477C57.3161 226.703 11.5511 211.961 13.4241 174.327C16.1271 120.007 68.7181 111.406 116.34 112.019C166.99 112.67 216.325 95.961 256.545 65.167C285.519 42.984 317.191 19.555 347.053 5.77495C388.595 -13.394 435.156 17.552 435.156 63.304V63.304Z" fill="url(#paint0_linear)"/>
<g opacity="0.1">
<g opacity="0.1">
<path opacity="0.1" d="M425.322 403.013H200.428L198.805 396.256L171.715 373.511L156.552 360.758V351.566C168.469 347.061 177.569 336.837 180.516 324.24C181.943 324.87 183.518 325.227 185.178 325.227C191.563 325.227 196.738 320.051 196.738 313.666C196.738 307.281 191.562 302.105 185.178 302.105C183.906 302.105 182.687 302.318 181.542 302.697V299.687C181.542 285.904 174.322 273.814 163.464 266.971H424.676C430.199 266.971 434.676 262.494 434.676 256.971V237.83C434.676 232.307 430.199 227.83 424.676 227.83H200.429L198.805 221.071L171.715 198.326L156.552 185.573V176.381C168.469 171.876 177.569 161.652 180.516 149.056C181.943 149.686 183.518 150.043 185.178 150.043C191.563 150.043 196.738 144.867 196.738 138.483C196.738 132.098 191.562 126.922 185.178 126.922C183.906 126.922 182.687 127.135 181.542 127.514V124.504C181.542 103.157 164.237 85.851 142.889 85.851C121.542 85.851 104.236 103.156 104.236 124.504V127.518C103.088 127.136 101.864 126.922 100.588 126.922C94.2029 126.922 89.0279 132.098 89.0279 138.483C89.0279 144.868 94.2039 150.043 100.588 150.043C102.252 150.043 103.831 149.684 105.261 149.051C108.207 161.652 117.31 171.879 129.232 176.384V185.573L114.069 198.326L86.9789 221.071L77.4229 260.801C76.6669 263.946 79.0499 266.97 82.2839 266.97H122.316C111.457 273.813 104.236 285.904 104.236 299.687V302.701C103.088 302.319 101.864 302.104 100.588 302.104C94.2029 302.104 89.0279 307.28 89.0279 313.665C89.0279 320.05 94.2039 325.226 100.588 325.226C102.252 325.226 103.831 324.867 105.261 324.234C108.207 336.835 117.31 347.062 129.232 351.567V360.757L114.069 373.51L86.9789 396.255L77.4229 435.985C76.6669 439.13 79.0499 442.154 82.2839 442.154H162.596H203.487H425.32C430.843 442.154 435.32 437.677 435.32 432.154V413.012C435.322 407.49 430.845 403.013 425.322 403.013Z" fill="#1A3D73"/>
</g>
<g opacity="0.1">
<path opacity="0.1" d="M335.541 333.606V299.299C335.541 296.538 333.302 294.299 330.541 294.299H243.287C240.526 294.299 238.287 296.538 238.287 299.299V333.606C238.287 336.367 240.526 338.606 243.287 338.606H330.541C333.303 338.606 335.541 336.368 335.541 333.606Z" fill="#1A3D73"/>
</g>
<g opacity="0.1">
<path opacity="0.1" d="M243.287 163.424H330.541C333.302 163.424 335.541 161.185 335.541 158.424V124.117C335.541 121.356 333.302 119.117 330.541 119.117H243.287C240.526 119.117 238.287 121.356 238.287 124.117V158.424C238.287 161.186 240.526 163.424 243.287 163.424V163.424Z" fill="#1A3D73"/>
</g>
<g opacity="0.1">
<path opacity="0.1" d="M238.287 365.1H282.429C285.19 365.1 287.429 362.862 287.429 360.1C287.429 357.338 285.19 355.1 282.429 355.1H238.287C235.526 355.1 233.287 357.338 233.287 360.1C233.287 362.862 235.526 365.1 238.287 365.1V365.1Z" fill="#1A3D73"/>
</g>
<g opacity="0.1">
<path opacity="0.1" d="M238.287 189.918H282.429C285.19 189.918 287.429 187.68 287.429 184.918C287.429 182.156 285.19 179.918 282.429 179.918H238.287C235.526 179.918 233.287 182.156 233.287 184.918C233.287 187.68 235.526 189.918 238.287 189.918V189.918Z" fill="#1A3D73"/>
</g>
</g>
<path d="M434.681 213.83V232.97C434.681 238.5 430.201 242.97 424.681 242.97H317.631L323.973 231.628L340.688 214.913L356.771 203.83H424.681C430.201 203.83 434.681 208.31 434.681 213.83V213.83Z" fill="white"/>
<path d="M356.776 203.83H161.953V242.973H317.633L356.776 203.83Z" fill="#F75F20"/>
<path d="M203.491 242.97H82.281C79.051 242.97 76.671 239.95 77.421 236.8L86.981 197.07L114.071 174.33H171.721L198.801 197.07L208.351 236.8C209.101 239.95 206.721 242.97 203.491 242.97V242.97Z" fill="white"/>
<path d="M171.721 174.33L142.891 203.18L114.071 174.33L129.231 161.58H156.551L171.721 174.33Z" fill="#F75F20"/>
<path d="M129.232 144.946V161.576C129.232 161.576 133.189 167.528 142.885 167.528C152.581 167.528 156.554 161.576 156.554 161.576V144.946H129.232Z" fill="white"/>
<path d="M185.179 126.043C191.563 126.043 196.739 120.867 196.739 114.483C196.739 108.099 191.563 102.923 185.179 102.923C178.795 102.923 173.619 108.099 173.619 114.483C173.619 120.867 178.795 126.043 185.179 126.043Z" fill="white"/>
<path d="M100.59 126.043C106.974 126.043 112.15 120.867 112.15 114.483C112.15 108.099 106.974 102.923 100.59 102.923C94.2056 102.923 89.03 108.099 89.03 114.483C89.03 120.867 94.2056 126.043 100.59 126.043Z" fill="white"/>
<path d="M106.285 88.124C104.968 92.01 104.241 96.172 104.241 100.5V116.22C104.241 137.57 121.541 154.87 142.891 154.87C164.241 154.87 181.541 137.57 181.541 116.22V100.5L142.89 79.25L106.285 88.124Z" fill="white"/>
<path d="M181.545 100.498C140.95 100.498 139.734 85.52 139.734 85.52V96.935C119.825 99.316 110.081 92.173 106.282 88.12C111.432 72.838 125.87 61.845 142.892 61.845C153.564 61.845 163.223 66.168 170.214 73.176C177.222 80.167 181.545 89.826 181.545 100.498Z" fill="#F75F20"/>
<path d="M435.321 389.01V408.16C435.321 413.68 430.841 418.16 425.321 418.16H358.281L367.902 403.535L382.452 388.982L397.421 379.01H425.321C430.841 379.01 435.321 383.49 435.321 389.01V389.01Z" fill="white"/>
<path d="M397.42 379.013H162.598V418.155H358.278L397.42 379.013Z" fill="#3678D3"/>
<path d="M203.491 418.16H82.281C79.051 418.16 76.671 415.13 77.421 411.99L86.981 372.26L114.071 349.51H171.721L198.801 372.26L208.351 411.99C209.101 415.13 206.721 418.16 203.491 418.16V418.16Z" fill="white"/>
<path d="M171.721 349.51L142.891 378.37L114.071 349.51L129.231 336.76H156.551L171.721 349.51Z" fill="#3678D3"/>
<path d="M129.232 320.13V336.76C129.232 336.76 133.189 342.713 142.885 342.713C152.581 342.713 156.554 336.76 156.554 336.76V320.13H129.232Z" fill="white"/>
<path d="M185.179 301.227C191.563 301.227 196.739 296.051 196.739 289.667C196.739 283.283 191.563 278.107 185.179 278.107C178.795 278.107 173.619 283.283 173.619 289.667C173.619 296.051 178.795 301.227 185.179 301.227Z" fill="white"/>
<path d="M100.59 301.227C106.974 301.227 112.15 296.051 112.15 289.667C112.15 283.283 106.974 278.107 100.59 278.107C94.2056 278.107 89.03 283.283 89.03 289.667C89.03 296.051 94.2056 301.227 100.59 301.227Z" fill="white"/>
<path d="M106.281 263.3C104.959 267.19 104.241 271.352 104.241 275.69V291.41C104.241 312.75 121.541 330.06 142.891 330.06C164.241 330.06 181.541 312.75 181.541 291.41V275.68L142.89 253.143L106.281 263.3Z" fill="white"/>
<path d="M181.545 275.682C140.95 275.682 139.734 260.704 139.734 260.704V272.119C119.825 274.5 110.081 267.357 106.282 263.304C111.432 248.022 125.87 237.029 142.892 237.029C153.564 237.029 163.223 241.352 170.214 248.36C177.222 255.35 181.545 265.009 181.545 275.682Z" fill="#3678D3"/>
<path d="M335.541 275.3V309.61C335.541 312.37 333.301 314.61 330.541 314.61H277.601L272.601 303.227V282.257L277.601 270.299H330.541C333.301 270.3 335.541 272.54 335.541 275.3Z" fill="#3678D3"/>
<path d="M335.541 292.45V309.61C335.541 312.37 333.301 314.61 330.541 314.61H277.601L272.601 303.23V287.45H320.227L335.541 292.45Z" fill="#3678D3"/>
<path d="M335.541 275.3V292.45H272.601V282.26L277.601 270.3H330.541C333.301 270.3 335.541 272.54 335.541 275.3Z" fill="white"/>
<path d="M277.597 270.3H243.288C240.527 270.3 238.288 272.539 238.288 275.3V309.607C238.288 312.368 240.527 314.607 243.288 314.607H277.597V270.3Z" fill="#3678D3"/>
<path d="M335.541 100.12V134.42C335.541 137.19 333.301 139.42 330.541 139.42H277.601L272.601 129.33V106.194L277.601 95.1199H330.541C333.301 95.1199 335.541 97.3599 335.541 100.12V100.12Z" fill="#3678D3"/>
<path d="M335.541 117.27V134.42C335.541 137.19 333.301 139.42 330.541 139.42H277.601L272.601 129.33V113.27H320.227L335.541 117.27Z" fill="#F75F20"/>
<path d="M335.541 100.12V117.27H272.601V106.19L277.601 95.1199H330.541C333.301 95.1199 335.541 97.3599 335.541 100.12Z" fill="white"/>
<path d="M277.597 95.1179H243.288C240.527 95.1179 238.288 97.3569 238.288 100.118V134.425C238.288 137.186 240.527 139.425 243.288 139.425H277.597V95.1179Z" fill="#F75F20"/>
<path d="M425.321 374.01H204.364L203.662 371.091C203.412 370.051 202.835 369.119 202.016 368.431L161.551 334.432V330.859C171.916 325.937 180.045 317.051 183.968 306.169C184.371 306.198 184.773 306.231 185.181 306.231C194.312 306.231 201.741 298.802 201.741 289.67C201.741 280.972 194.997 273.834 186.465 273.174C185.921 263.636 182.305 254.908 176.588 247.969L424.678 247.972C432.949 247.972 439.678 241.243 439.678 232.972V213.83C439.678 205.559 432.949 198.83 424.678 198.83H229.626C226.865 198.83 224.626 201.068 224.626 203.83C224.626 206.592 226.865 208.83 229.626 208.83H424.678C427.435 208.83 429.678 211.073 429.678 213.83V232.973C429.678 235.73 427.435 237.973 424.678 237.973H213.487C213.486 237.195 213.398 236.41 213.213 235.631L203.663 195.902C203.413 194.862 202.836 193.929 202.017 193.242L161.552 159.252V155.676C171.919 150.753 180.049 141.864 183.971 130.979C184.373 131.008 184.775 131.041 185.182 131.041C194.313 131.041 201.742 123.612 201.742 114.481C201.742 105.783 194.998 98.6449 186.466 97.9849C185.155 75.0839 166.115 56.8519 142.891 56.8519C119.667 56.8519 100.627 75.0829 99.316 97.9849C90.779 98.6399 84.0309 105.779 84.0309 114.48C84.0309 123.611 91.46 131.04 100.591 131.04C101 131.04 101.405 131.007 101.81 130.978C105.732 141.864 113.863 150.753 124.232 155.676V159.252L83.7669 193.241C82.9479 193.929 82.371 194.86 82.121 195.9L72.558 235.641C71.844 238.643 72.53 241.751 74.44 244.169C76.347 246.584 79.2059 247.969 82.2819 247.969H109.193C103.476 254.907 99.86 263.636 99.316 273.173C90.779 273.83 84.0309 280.969 84.0309 289.67C84.0309 298.802 91.46 306.231 100.591 306.231C101.001 306.231 101.406 306.198 101.812 306.168C105.735 317.051 113.865 325.938 124.231 330.86V334.432L106.398 349.419C104.282 351.193 104.005 354.347 105.78 356.463C106.769 357.643 108.186 358.25 109.613 358.25C110.747 358.25 111.887 357.866 112.823 357.081L132.448 340.586C133.577 339.637 134.23 338.235 134.23 336.76V334.192C137.03 334.758 139.925 335.057 142.889 335.057C145.854 335.057 148.75 334.757 151.55 334.191V336.759C151.55 338.235 152.202 339.636 153.332 340.585L194.324 375.028L195.522 380.01C195.523 380.017 195.525 380.023 195.527 380.03L203.491 413.16H82.2819L91.842 373.43C92.488 370.745 90.835 368.045 88.151 367.399C85.463 366.753 82.766 368.407 82.12 371.09L72.558 410.828C71.842 413.826 72.527 416.934 74.438 419.356C76.346 421.773 79.2049 423.16 82.2809 423.16H425.321C433.592 423.16 440.321 416.431 440.321 408.16V389.01C440.321 380.738 433.592 374.01 425.321 374.01ZM191.741 289.67C191.741 292.911 189.376 295.604 186.283 296.13C186.451 294.577 186.543 293.002 186.543 291.405V283.253C189.508 283.883 191.741 286.52 191.741 289.67V289.67ZM191.741 114.48C191.741 117.721 189.377 120.413 186.284 120.939C186.451 119.388 186.543 117.815 186.543 116.221V108.064C189.508 108.693 191.741 111.33 191.741 114.48ZM94.031 114.48C94.031 111.327 96.268 108.688 99.237 108.062V116.222C99.237 117.817 99.329 119.39 99.496 120.941C96.399 120.417 94.031 117.724 94.031 114.48V114.48ZM109.237 116.222V100.505C109.237 81.9479 124.334 66.8519 142.89 66.8519C161.446 66.8519 176.543 81.9489 176.543 100.505V116.222C176.543 134.778 161.446 149.874 142.89 149.874C124.334 149.874 109.237 134.777 109.237 116.222ZM91.457 199.841L132.449 165.406C133.578 164.457 134.231 163.055 134.231 161.58V159.008C137.031 159.574 139.926 159.873 142.89 159.873C145.855 159.873 148.751 159.573 151.551 159.007V161.579C151.551 163.056 152.204 164.457 153.334 165.406L194.324 199.839L203.491 237.969H164.823C158.373 234.203 150.882 232.034 142.889 232.034C134.896 232.034 127.406 234.203 120.955 237.969H82.2819L91.457 199.841ZM94.031 289.67C94.031 286.517 96.268 283.878 99.237 283.252V291.406C99.237 293.003 99.329 294.579 99.497 296.132C96.4 295.608 94.031 292.914 94.031 289.67V289.67ZM109.237 291.405V275.688C109.237 257.131 124.334 242.035 142.89 242.035C161.446 242.035 176.543 257.132 176.543 275.688V291.405C176.543 309.961 161.446 325.057 142.89 325.057C124.334 325.057 109.237 309.961 109.237 291.405ZM430.321 408.16C430.321 410.917 428.078 413.16 425.321 413.16H213.487C213.486 412.382 213.398 411.598 213.213 410.821L206.768 384.009H425.321C428.078 384.009 430.321 386.252 430.321 389.009V408.16Z" fill="#1A3D73"/>
<path d="M340.542 309.606V275.3C340.542 269.786 336.056 265.3 330.542 265.3H243.288C237.774 265.3 233.288 269.786 233.288 275.3V309.607C233.288 315.121 237.774 319.607 243.288 319.607H330.542C336.056 319.606 340.542 315.12 340.542 309.606V309.606ZM330.548 309.606H282.596V275.3H330.541L330.548 309.606ZM243.287 275.3H272.596V309.607H243.287V275.3Z" fill="#1A3D73"/>
<path d="M238.287 341.1H282.429C285.19 341.1 287.429 338.862 287.429 336.1C287.429 333.338 285.19 331.1 282.429 331.1H238.287C235.526 331.1 233.287 333.338 233.287 336.1C233.287 338.862 235.526 341.1 238.287 341.1V341.1Z" fill="#1A3D73"/>
<path d="M238.287 360.013H318.227C320.988 360.013 323.227 357.775 323.227 355.013C323.227 352.251 320.988 350.013 318.227 350.013H238.287C235.526 350.013 233.287 352.251 233.287 355.013C233.287 357.775 235.526 360.013 238.287 360.013V360.013Z" fill="#1A3D73"/>
<path d="M243.287 144.424H330.541C336.055 144.424 340.541 139.938 340.541 134.424V100.117C340.541 94.6029 336.055 90.1169 330.541 90.1169H243.287C237.773 90.1169 233.287 94.6029 233.287 100.117V134.424C233.287 139.938 237.773 144.424 243.287 144.424V144.424ZM330.548 134.424H282.596V100.117H330.541L330.548 134.424ZM243.287 100.117H272.596V134.424H243.287V100.117Z" fill="#1A3D73"/>
<path d="M238.287 165.918H282.429C285.19 165.918 287.429 163.68 287.429 160.918C287.429 158.156 285.19 155.918 282.429 155.918H238.287C235.526 155.918 233.287 158.156 233.287 160.918C233.287 163.68 235.526 165.918 238.287 165.918V165.918Z" fill="#1A3D73"/>
<path d="M238.287 184.83H318.227C320.988 184.83 323.227 182.592 323.227 179.83C323.227 177.068 320.988 174.83 318.227 174.83H238.287C235.526 174.83 233.287 177.068 233.287 179.83C233.287 182.592 235.526 184.83 238.287 184.83V184.83Z" fill="#1A3D73"/>
<path d="M218.64 71.292C209.634 71.292 202.307 63.965 202.307 54.959C202.307 45.953 209.634 38.626 218.64 38.626C227.646 38.626 234.973 45.953 234.973 54.959C234.973 63.965 227.646 71.292 218.64 71.292ZM218.64 48.626C215.148 48.626 212.307 51.467 212.307 54.959C212.307 58.451 215.148 61.292 218.64 61.292C222.132 61.292 224.973 58.451 224.973 54.959C224.973 51.467 222.133 48.626 218.64 48.626Z" fill="#F75F20"/>
<path d="M384.235 317.56C375.229 317.56 367.902 310.233 367.902 301.227C367.902 292.221 375.229 284.894 384.235 284.894C393.241 284.894 400.568 292.221 400.568 301.227C400.568 310.233 393.241 317.56 384.235 317.56V317.56ZM384.235 294.894C380.743 294.894 377.902 297.735 377.902 301.227C377.902 304.719 380.743 307.56 384.235 307.56C387.727 307.56 390.568 304.719 390.568 301.227C390.568 297.735 387.727 294.894 384.235 294.894Z" fill="#F75F20"/>
<path d="M176.739 478.84C167.733 478.84 160.406 471.513 160.406 462.507C160.406 453.501 167.733 446.174 176.739 446.174C185.745 446.174 193.072 453.501 193.072 462.507C193.072 471.513 185.744 478.84 176.739 478.84V478.84ZM176.739 456.174C173.247 456.174 170.406 459.015 170.406 462.507C170.406 465.999 173.247 468.84 176.739 468.84C180.231 468.84 183.072 465.999 183.072 462.507C183.072 459.015 180.231 456.174 176.739 456.174Z" fill="#F75F20"/>
<path d="M234.29 466.669C232.964 466.669 231.692 466.142 230.754 465.204L220.254 454.704C218.301 452.752 218.301 449.586 220.254 447.634L230.754 437.134C231.692 436.196 232.963 435.669 234.29 435.669C235.617 435.669 236.888 436.195 237.826 437.134L248.326 447.634C250.279 449.586 250.279 452.752 248.326 454.704L237.826 465.204C236.888 466.141 235.616 466.669 234.29 466.669ZM230.861 451.169L234.29 454.598L237.719 451.169L234.29 447.74L230.861 451.169Z" fill="#3678D3"/>
<path d="M63.105 180.308C61.825 180.308 60.546 179.82 59.569 178.844L49.069 168.344C47.116 166.391 47.116 163.225 49.069 161.273L59.569 150.773C60.507 149.835 61.778 149.309 63.105 149.309C64.432 149.309 65.703 149.836 66.641 150.773L77.141 161.273C78.079 162.211 78.605 163.482 78.605 164.809C78.605 166.136 78.078 167.407 77.141 168.345L66.641 178.845C65.664 179.82 64.384 180.308 63.105 180.308V180.308ZM59.676 164.809L63.105 168.238L66.534 164.809L63.105 161.38L59.676 164.809Z" fill="#3678D3"/>
</g>
<defs>
<linearGradient id="paint0_linear" x1="13.3691" y1="256" x2="498.631" y2="256" gradientUnits="userSpaceOnUse">
<stop stop-color="#AECCEF" stop-opacity="0"/>
<stop offset="1" stop-color="#AECCEF"/>
</linearGradient>
<clipPath id="clip0">
<rect width="512" height="512" fill="white"/>
</clipPath>
</defs>
</svg>
