<svg width="512" height="512" viewBox="0 0 512 512" fill="none" xmlns="http://www.w3.org/2000/svg">
<g clip-path="url(#clip0)">
<path d="M390.475 210.037C390.132 176.426 426.694 153.467 444.167 128.446C468.941 92.9709 454.883 58.5049 409.451 52.7889C391.589 50.5419 373.663 55.0269 355.987 53.0159C319.3 48.8439 321.934 -1.40508 279.985 0.0309229C237.504 1.48492 232.918 34.1749 224.345 69.0869C216.616 100.561 195.113 95.8849 170.809 81.5369C87.7661 32.5109 11.0721 175.007 77.0531 230.247C106.443 254.852 147.906 261.157 184.407 271.91C213.364 280.44 244.708 293.311 264.98 316.603C290.088 345.452 280.123 377.137 260.061 405.217C243.078 428.987 226.621 464.921 248.599 491.061C298.815 550.786 384.91 468.239 419.977 423.989C459.794 373.746 447.411 307.709 411.743 257.883C401.426 243.471 390.656 227.762 390.475 210.037V210.037Z" fill="url(#paint0_linear)"/>
<path d="M390.475 210.037C390.132 176.426 426.694 153.467 444.167 128.446C468.941 92.9709 454.883 58.5049 409.451 52.7889C391.589 50.5419 373.663 55.0269 355.987 53.0159C319.3 48.8439 321.934 -1.40508 279.985 0.0309229C237.504 1.48492 232.918 34.1749 224.345 69.0869C216.616 100.561 195.113 95.8849 170.809 81.5369C87.7661 32.5109 11.0721 175.007 77.0531 230.247C106.443 254.852 147.906 261.157 184.407 271.91C213.364 280.44 244.708 293.311 264.98 316.603C290.088 345.452 280.123 377.137 260.061 405.217C243.078 428.987 226.621 464.921 248.599 491.061C298.815 550.786 384.91 468.239 419.977 423.989C459.794 373.746 447.411 307.709 411.743 257.883C401.426 243.471 390.656 227.762 390.475 210.037V210.037Z" fill="url(#paint1_linear)"/>
<g opacity="0.1">
<path opacity="0.1" d="M225.881 247.223H165.731C160.261 247.223 155.831 251.653 155.831 257.123V475.103C155.831 480.573 160.261 485.003 165.731 485.003H225.881C231.351 485.003 235.781 480.573 235.781 475.103V257.123C235.781 251.653 231.351 247.223 225.881 247.223V247.223Z" fill="#1A3D73"/>
<path opacity="0.1" d="M329.991 327.223H269.841C264.371 327.223 259.941 331.653 259.941 337.123V475.103C259.941 480.573 264.371 485.003 269.841 485.003H329.991C335.461 485.003 339.891 480.573 339.891 475.103V337.123C339.891 331.653 335.461 327.223 329.991 327.223V327.223Z" fill="#1A3D73"/>
<path opacity="0.1" d="M121.762 395.218H61.6131C56.1441 395.218 51.7111 399.651 51.7111 405.12V475.106C51.7111 480.575 56.1441 485.008 61.6131 485.008H121.762C127.231 485.008 131.664 480.575 131.664 475.106V405.12C131.664 399.651 127.231 395.218 121.762 395.218V395.218Z" fill="#1A3D73"/>
<path opacity="0.1" d="M102.481 184.403L112.219 170.692C113.697 168.611 113.697 165.824 112.219 163.743L102.481 150.032C101.356 148.448 99.5331 147.506 97.5891 147.506H37.7111C34.3971 147.506 31.7111 150.192 31.7111 153.506V180.927C31.7111 184.241 34.3971 186.927 37.7111 186.927H97.5901C99.5331 186.929 101.356 185.988 102.481 184.403V184.403Z" fill="#1A3D73"/>
<path opacity="0.1" d="M467.544 154.473H448.572C443.025 117.53 413.746 88.2508 376.802 82.7028V63.7318C376.802 56.6928 371.096 50.9868 364.057 50.9868C357.018 50.9868 351.312 56.6928 351.312 63.7318V82.7038C314.369 88.2508 285.09 117.53 279.542 154.474H260.57C253.531 154.474 247.825 160.18 247.825 167.219C247.825 174.258 253.531 179.964 260.57 179.964H279.542C285.089 216.907 314.368 246.186 351.312 251.734V270.706C351.312 277.744 357.016 283.449 364.054 283.451V475.105C364.054 480.575 368.494 485.015 373.964 485.015H434.104C439.574 485.015 444.014 480.575 444.014 475.105V197.375C446.116 191.82 447.666 185.997 448.572 179.963H467.544C474.583 179.963 480.289 174.257 480.289 167.218C480.289 160.179 474.583 154.473 467.544 154.473V154.473ZM424.034 167.223H400.767C400.767 167.221 400.767 167.22 400.767 167.218C400.767 146.944 384.332 130.509 364.058 130.509C343.784 130.509 327.349 146.944 327.349 167.218C327.349 187.491 343.782 203.925 364.055 203.927V227.194C330.986 227.192 304.082 200.288 304.082 167.218C304.082 134.147 330.987 107.242 364.058 107.242C397.129 107.242 424.034 134.147 424.034 167.218V167.223Z" fill="#1A3D73"/>
</g>
<path d="M235.781 233.123V451.103C235.781 456.573 231.351 461.003 225.881 461.003H165.731C160.261 461.003 155.831 456.573 155.831 451.103V233.123C155.831 227.653 160.261 223.223 165.731 223.223H225.881C231.351 223.223 235.781 227.653 235.781 233.123V233.123Z" fill="white"/>
<path d="M185.831 253.213H205.781V431.003H185.831V253.213Z" fill="#F75F20"/>
<path d="M339.891 313.123V451.103C339.891 456.573 335.461 461.003 329.991 461.003H269.841C264.371 461.003 259.941 456.573 259.941 451.103V313.123C259.941 307.653 264.371 303.223 269.841 303.223H329.991C335.461 303.223 339.891 307.653 339.891 313.123V313.123Z" fill="white"/>
<path d="M309.895 333.218V431.008H289.942V333.218H309.895Z" fill="#F75F20"/>
<path d="M444.015 153.123V451.103C444.015 456.573 439.575 461.013 434.105 461.013H373.965C368.495 461.013 364.055 456.573 364.055 451.103V153.123C364.055 147.653 368.495 143.223 373.965 143.223H434.105C439.575 143.223 444.015 147.653 444.015 153.123Z" fill="white"/>
<path d="M394.055 173.213H414.015V431.003H394.055V173.213Z" fill="#F75F20"/>
<path d="M121.762 461.008H61.6131C56.1441 461.008 51.7111 456.575 51.7111 451.106V381.12C51.7111 375.651 56.1441 371.218 61.6131 371.218H121.762C127.231 371.218 131.664 375.651 131.664 381.12V451.106C131.664 456.575 127.231 461.008 121.762 461.008V461.008Z" fill="#F75F20"/>
<path d="M101.664 401.217V431.007H81.7111V401.217H101.664Z" fill="white"/>
<path d="M364.058 179.927C384.332 179.927 400.767 163.492 400.767 143.218C400.767 122.944 384.332 106.509 364.058 106.509C343.784 106.509 327.349 122.944 327.349 143.218C327.349 163.492 343.784 179.927 364.058 179.927Z" fill="#3678D3"/>
<path d="M364.058 159.901C373.272 159.901 380.741 152.432 380.741 143.218C380.741 134.004 373.272 126.535 364.058 126.535C354.844 126.535 347.375 134.004 347.375 143.218C347.375 152.432 354.844 159.901 364.058 159.901Z" fill="white"/>
<path d="M467.544 130.473H448.572C443.025 93.5298 413.746 64.2508 376.802 58.7028V39.7318C376.802 32.6928 371.096 26.9868 364.057 26.9868C357.018 26.9868 351.312 32.6928 351.312 39.7318V58.7038C314.369 64.2508 285.09 93.5298 279.542 130.474H260.57C253.531 130.474 247.825 136.18 247.825 143.219C247.825 150.258 253.531 155.964 260.57 155.964H279.542C285.089 192.907 314.368 222.186 351.312 227.734V246.706C351.312 253.745 357.018 259.451 364.057 259.451C371.096 259.451 376.802 253.745 376.802 246.706V227.734C413.745 222.187 443.024 192.908 448.572 155.964H467.544C474.583 155.964 480.289 150.258 480.289 143.219C480.289 136.18 474.583 130.473 467.544 130.473V130.473ZM364.058 203.194C330.987 203.194 304.082 176.289 304.082 143.218C304.082 110.147 330.987 83.2418 364.058 83.2418C397.129 83.2418 424.034 110.147 424.034 143.218C424.034 176.289 397.128 203.194 364.058 203.194Z" fill="#3678D3"/>
<path d="M97.5901 162.929H37.7111C34.3971 162.929 31.7111 160.243 31.7111 156.929V129.508C31.7111 126.194 34.3971 123.508 37.7111 123.508H97.5901C99.5331 123.508 101.356 124.449 102.482 126.034L112.22 139.745C113.698 141.826 113.698 144.613 112.22 146.694L102.482 160.405C101.356 161.987 99.5331 162.929 97.5901 162.929V162.929Z" fill="white"/>
<path d="M225.877 218.218H210.4C207.638 218.218 205.4 220.457 205.4 223.218C205.4 225.979 207.638 228.218 210.4 228.218H225.878C228.581 228.218 230.78 230.417 230.78 233.12V451.106C230.78 453.809 228.581 456.008 225.878 456.008H165.73C163.027 456.008 160.828 453.809 160.828 451.106V233.12C160.828 230.417 163.027 228.218 165.73 228.218H181.3C184.062 228.218 186.3 225.979 186.3 223.218C186.3 220.457 184.062 218.218 181.3 218.218H165.73C157.513 218.218 150.828 224.903 150.828 233.12V451.106C150.828 459.323 157.514 466.008 165.73 466.008H225.878C234.095 466.008 240.78 459.323 240.78 451.106V233.12C240.78 224.903 234.094 218.218 225.877 218.218V218.218Z" fill="#1A3D73"/>
<path d="M329.993 298.218H269.845C261.628 298.218 254.943 304.903 254.943 313.12V451.106C254.943 459.323 261.629 466.008 269.845 466.008H329.993C338.21 466.008 344.895 459.323 344.895 451.106V313.12C344.895 304.903 338.209 298.218 329.993 298.218ZM334.895 451.106C334.895 453.809 332.696 456.008 329.993 456.008H269.845C267.142 456.008 264.943 453.809 264.943 451.106V313.12C264.943 310.417 267.142 308.218 269.845 308.218H329.993C332.696 308.218 334.895 310.417 334.895 313.12V451.106Z" fill="#1A3D73"/>
<path d="M121.762 366.218H61.613C53.396 366.218 46.712 372.903 46.712 381.12V451.106C46.712 459.323 53.397 466.008 61.613 466.008H121.762C129.979 466.008 136.663 459.323 136.663 451.106V381.12C136.664 372.903 129.979 366.218 121.762 366.218V366.218ZM126.664 451.106C126.664 453.809 124.465 456.008 121.763 456.008H61.613C58.911 456.008 56.712 453.809 56.712 451.106V381.12C56.712 378.417 58.911 376.218 61.613 376.218H121.762C124.464 376.218 126.663 378.417 126.663 381.12V451.106H126.664Z" fill="#1A3D73"/>
<path d="M467.544 125.473H452.774C449.293 107.96 440.781 92.0638 427.996 79.2788C415.211 66.4938 399.314 57.9828 381.802 54.5008V39.7308C381.802 29.9468 373.842 21.9858 364.058 21.9858C354.273 21.9858 346.313 29.9458 346.313 39.7308V54.5008C328.8 57.9818 312.904 66.4938 300.119 79.2788C287.334 92.0638 278.823 107.961 275.342 125.473H260.572C250.787 125.473 242.827 133.433 242.827 143.218C242.827 153.003 250.787 160.963 260.572 160.963H275.342C278.823 178.475 287.334 194.372 300.119 207.157C312.904 219.942 328.801 228.453 346.313 231.935V246.705C346.313 256.489 354.273 264.45 364.058 264.45C373.842 264.45 381.802 256.49 381.802 246.705V231.935C399.315 228.454 415.211 219.942 427.996 207.157C432.124 203.029 435.799 198.573 439.011 193.846V451.106C439.011 453.809 436.812 456.008 434.109 456.008H373.96C371.257 456.008 369.058 453.809 369.058 451.106V287.792C369.058 285.031 366.82 282.792 364.058 282.792C361.296 282.792 359.058 285.031 359.058 287.792V451.105C359.058 459.322 365.744 466.007 373.96 466.007H434.108C442.325 466.007 449.01 459.322 449.01 451.105V174.518C449.01 174.474 448.998 174.433 448.997 174.389C450.59 170.042 451.86 165.56 452.774 160.963H467.544C477.328 160.963 485.288 153.003 485.288 143.218C485.289 133.434 477.329 125.473 467.544 125.473V125.473ZM467.544 150.963H448.572C446.097 150.963 443.995 152.773 443.628 155.22C438.434 189.809 410.649 217.594 376.06 222.788C373.613 223.155 371.802 225.258 371.802 227.732V246.704C371.802 250.975 368.328 254.449 364.058 254.449C359.788 254.449 356.313 250.975 356.313 246.704V227.732C356.313 225.257 354.502 223.155 352.055 222.788C317.466 217.594 289.681 189.809 284.488 155.221C284.121 152.773 282.018 150.963 279.544 150.963H260.572C256.301 150.963 252.827 147.488 252.827 143.218C252.827 138.948 256.302 135.473 260.572 135.473H279.544C282.019 135.473 284.121 133.662 284.488 131.215C289.681 96.6268 317.467 68.8418 352.055 63.6478C354.502 63.2808 356.313 61.1778 356.313 58.7038V39.7318C356.313 35.4608 359.788 31.9868 364.058 31.9868C368.328 31.9868 371.802 35.4608 371.802 39.7318V58.7038C371.802 61.1788 373.613 63.2808 376.06 63.6478C410.649 68.8418 438.434 96.6268 443.628 131.216C443.995 133.663 446.098 135.473 448.572 135.473H467.544C471.815 135.473 475.288 138.947 475.288 143.218C475.288 147.489 471.815 150.963 467.544 150.963Z" fill="#1A3D73"/>
<path d="M364.058 78.2419C328.23 78.2419 299.081 107.39 299.081 143.218C299.081 179.046 328.229 208.194 364.058 208.194C399.887 208.194 429.034 179.046 429.034 143.218C429.034 107.39 399.886 78.2419 364.058 78.2419V78.2419ZM309.082 143.218C309.082 112.905 333.744 88.2419 364.059 88.2419C392.686 88.2419 416.262 110.24 418.797 138.218H405.458C402.979 117.569 385.364 101.509 364.059 101.509C341.061 101.509 322.35 120.219 322.35 143.218C322.35 164.523 338.411 182.138 359.059 184.617V197.956C331.079 195.421 309.082 171.845 309.082 143.218ZM364.058 174.927C346.574 174.927 332.349 160.702 332.349 143.218C332.349 125.734 346.574 111.509 364.058 111.509C381.542 111.509 395.767 125.734 395.767 143.218C395.767 160.703 381.542 174.927 364.058 174.927ZM369.058 197.956V184.617C388.065 182.335 403.174 167.226 405.457 148.218H418.796C416.41 174.548 395.388 195.57 369.058 197.956Z" fill="#1A3D73"/>
<path d="M37.7111 167.929H97.5891C101.146 167.929 104.498 166.198 106.557 163.299L116.296 149.588C119.002 145.778 119.002 140.659 116.296 136.849L106.557 123.139C104.498 120.24 101.146 118.509 97.5891 118.509H37.7111C31.6461 118.509 26.7111 123.444 26.7111 129.509V156.93C26.7111 162.994 31.6461 167.929 37.7111 167.929V167.929ZM36.7111 129.507C36.7111 128.956 37.1591 128.507 37.7111 128.507H97.5891C97.9121 128.507 98.2171 128.664 98.4041 128.928L108.143 142.638C108.389 142.985 108.389 143.45 108.143 143.796L98.4041 157.507C98.2161 157.77 97.9121 157.927 97.5891 157.927H37.7111C37.1591 157.927 36.7111 157.478 36.7111 156.927V129.507Z" fill="#1A3D73"/>
<path d="M215.906 148.218H227.504C230.266 148.218 232.504 145.979 232.504 143.218C232.504 140.457 230.266 138.218 227.504 138.218H215.906C213.144 138.218 210.906 140.457 210.906 143.218C210.906 145.979 213.144 148.218 215.906 148.218Z" fill="#1A3D73"/>
<path d="M178.234 148.218H189.831C192.593 148.218 194.831 145.979 194.831 143.218C194.831 140.457 192.593 138.218 189.831 138.218H178.234C175.472 138.218 173.234 140.457 173.234 143.218C173.234 145.979 175.472 148.218 178.234 148.218Z" fill="#1A3D73"/>
<path d="M157.159 143.218C157.159 140.457 154.921 138.218 152.159 138.218H140.561C137.799 138.218 135.561 140.457 135.561 143.218C135.561 145.979 137.799 148.218 140.561 148.218H152.159C154.92 148.218 157.159 145.979 157.159 143.218Z" fill="#1A3D73"/>
<path d="M33.1051 197.03H51.6871C54.4491 197.03 56.6871 194.791 56.6871 192.03C56.6871 189.269 54.4491 187.03 51.6871 187.03H33.1051C30.3431 187.03 28.1051 189.269 28.1051 192.03C28.1051 194.791 30.3431 197.03 33.1051 197.03Z" fill="#1A3D73"/>
<path d="M33.1051 217.412H91.6871C94.4491 217.412 96.6871 215.173 96.6871 212.412C96.6871 209.651 94.4491 207.412 91.6871 207.412H33.1051C30.3431 207.412 28.1051 209.651 28.1051 212.412C28.1051 215.173 30.3431 217.412 33.1051 217.412Z" fill="#1A3D73"/>
<path d="M96.6871 232.793C96.6871 230.032 94.4491 227.793 91.6871 227.793H33.1051C30.3431 227.793 28.1051 230.032 28.1051 232.793C28.1051 235.554 30.3431 237.793 33.1051 237.793H91.6871C94.4491 237.793 96.6871 235.555 96.6871 232.793Z" fill="#1A3D73"/>
<g opacity="0.1">
<g opacity="0.1">
<path opacity="0.1" d="M227.503 172.218H215.905C213.144 172.218 210.905 169.979 210.905 167.218C210.905 164.457 213.144 162.218 215.905 162.218H227.503C230.264 162.218 232.503 164.457 232.503 167.218C232.503 169.979 230.265 172.218 227.503 172.218Z" fill="#1A3D73"/>
</g>
<g opacity="0.1">
<path opacity="0.1" d="M189.831 172.218H178.233C175.472 172.218 173.233 169.979 173.233 167.218C173.233 164.457 175.472 162.218 178.233 162.218H189.831C192.592 162.218 194.831 164.457 194.831 167.218C194.831 169.979 192.592 172.218 189.831 172.218Z" fill="#1A3D73"/>
</g>
<g opacity="0.1">
<path opacity="0.1" d="M152.159 172.218H140.561C137.8 172.218 135.561 169.979 135.561 167.218C135.561 164.457 137.8 162.218 140.561 162.218H152.159C154.92 162.218 157.159 164.457 157.159 167.218C157.159 169.979 154.92 172.218 152.159 172.218Z" fill="#1A3D73"/>
</g>
<g opacity="0.1">
<g opacity="0.1">
<g opacity="0.1">
<path opacity="0.1" d="M51.6881 221.03H33.1051C30.3441 221.03 28.1051 218.791 28.1051 216.03C28.1051 213.269 30.3441 211.03 33.1051 211.03H51.6881C54.4491 211.03 56.6881 213.269 56.6881 216.03C56.6881 218.791 54.4491 221.03 51.6881 221.03Z" fill="#1A3D73"/>
</g>
<g opacity="0.1">
<path opacity="0.1" d="M91.6881 241.412H33.1051C30.3441 241.412 28.1051 239.173 28.1051 236.412C28.1051 233.651 30.3441 231.412 33.1051 231.412H91.6881C94.4491 231.412 96.6881 233.651 96.6881 236.412C96.6881 239.173 94.4491 241.412 91.6881 241.412Z" fill="#1A3D73"/>
</g>
<g opacity="0.1">
<path opacity="0.1" d="M91.6881 261.793H33.1051C30.3441 261.793 28.1051 259.554 28.1051 256.793C28.1051 254.032 30.3441 251.793 33.1051 251.793H91.6881C94.4491 251.793 96.6881 254.032 96.6881 256.793C96.6881 259.555 94.4491 261.793 91.6881 261.793Z" fill="#1A3D73"/>
</g>
</g>
</g>
</g>
<path d="M256.327 107.36C255.048 107.36 253.767 106.872 252.792 105.896L247.827 100.932L242.862 105.896C240.911 107.848 237.743 107.848 235.792 105.896C233.839 103.943 233.839 100.777 235.792 98.8248L244.292 90.3248C246.243 88.3728 249.411 88.3728 251.362 90.3248L259.862 98.8248C261.815 100.778 261.815 103.944 259.862 105.896C258.886 106.872 257.606 107.36 256.327 107.36V107.36Z" fill="#3678D3"/>
<path d="M289.942 261.043C288.663 261.043 287.382 260.555 286.407 259.579L281.442 254.615L276.477 259.579C274.526 261.531 271.358 261.531 269.407 259.579C267.454 257.626 267.454 254.46 269.407 252.508L277.907 244.008C279.858 242.056 283.026 242.056 284.977 244.008L293.477 252.508C295.43 254.461 295.43 257.627 293.477 259.579C292.501 260.555 291.221 261.043 289.942 261.043Z" fill="#3678D3"/>
<path d="M195.569 75.897C194.29 75.897 193.009 75.4089 192.034 74.4329L187.069 69.469L182.104 74.4329C180.153 76.3849 176.985 76.3849 175.034 74.4329C173.081 72.4799 173.081 69.3139 175.034 67.3619L183.534 58.8619C185.485 56.9099 188.653 56.9099 190.604 58.8619L199.104 67.3619C201.057 69.3149 201.057 72.4809 199.104 74.4329C198.128 75.4089 196.848 75.897 195.569 75.897Z" fill="#3678D3"/>
<path d="M99.2811 307.064C98.4301 307.064 97.5691 306.847 96.7801 306.39L96.6812 306.333C94.2912 304.949 93.4762 301.89 94.8612 299.5C96.2452 297.111 99.3032 296.295 101.693 297.679L101.792 297.736C104.182 299.12 104.997 302.179 103.612 304.569C102.685 306.169 101.006 307.064 99.2811 307.064V307.064Z" fill="#F75F20"/>
<path d="M124.182 321.441C123.331 321.441 122.47 321.224 121.681 320.767L121.582 320.71C119.192 319.326 118.377 316.267 119.762 313.877C121.146 311.487 124.204 310.672 126.594 312.056L126.693 312.113C129.083 313.497 129.898 316.556 128.513 318.946C127.586 320.546 125.908 321.441 124.182 321.441Z" fill="#F75F20"/>
<path d="M99.2811 307.064C98.4301 307.064 97.5691 306.847 96.7801 306.39L96.6812 306.333C94.2912 304.949 93.4762 301.89 94.8612 299.5C96.2452 297.111 99.3032 296.295 101.693 297.679L101.792 297.736C104.182 299.12 104.997 302.179 103.612 304.569C102.685 306.169 101.006 307.064 99.2811 307.064V307.064Z" fill="#F75F20"/>
<path d="M124.182 321.441C123.331 321.441 122.47 321.224 121.681 320.767L121.582 320.71C119.192 319.326 118.377 316.267 119.762 313.877C121.146 311.487 124.204 310.672 126.594 312.056L126.693 312.113C129.083 313.497 129.898 316.556 128.513 318.946C127.586 320.546 125.908 321.441 124.182 321.441Z" fill="#F75F20"/>
<path d="M124.093 307.064C122.367 307.064 120.689 306.169 119.762 304.569C118.377 302.18 119.193 299.121 121.582 297.736L121.681 297.679C124.072 296.295 127.13 297.111 128.513 299.5C129.898 301.889 129.082 304.948 126.693 306.333L126.594 306.39C125.805 306.847 124.944 307.064 124.093 307.064Z" fill="#F75F20"/>
<path d="M99.1922 321.441C97.4662 321.441 95.7882 320.546 94.8612 318.946C93.4762 316.557 94.2922 313.498 96.6812 312.113L96.7802 312.056C99.1722 310.673 102.229 311.487 103.612 313.877C104.997 316.266 104.181 319.325 101.792 320.71L101.693 320.767C100.904 321.224 100.042 321.441 99.1922 321.441V321.441Z" fill="#F75F20"/>
<path d="M124.093 307.064C122.367 307.064 120.689 306.169 119.762 304.569C118.377 302.18 119.193 299.121 121.582 297.736L121.681 297.679C124.072 296.295 127.13 297.111 128.513 299.5C129.898 301.889 129.082 304.948 126.693 306.333L126.594 306.39C125.805 306.847 124.944 307.064 124.093 307.064Z" fill="#F75F20"/>
<path d="M99.1922 321.441C97.4662 321.441 95.7882 320.546 94.8612 318.946C93.4762 316.557 94.2922 313.498 96.6812 312.113L96.7802 312.056C99.1722 310.673 102.229 311.487 103.612 313.877C104.997 316.266 104.181 319.325 101.792 320.71L101.693 320.767C100.904 321.224 100.042 321.441 99.1922 321.441V321.441Z" fill="#F75F20"/>
<path d="M111.687 299.903C108.925 299.903 106.687 297.664 106.687 294.903V294.789C106.687 292.028 108.925 289.789 111.687 289.789C114.449 289.789 116.687 292.028 116.687 294.789V294.903C116.687 297.664 114.449 299.903 111.687 299.903Z" fill="#F75F20"/>
<path d="M111.687 328.657C108.925 328.657 106.687 326.418 106.687 323.657V323.543C106.687 320.782 108.925 318.543 111.687 318.543C114.449 318.543 116.687 320.782 116.687 323.543V323.657C116.687 326.418 114.449 328.657 111.687 328.657Z" fill="#F75F20"/>
<path d="M431.604 46.881C430.747 46.881 429.877 46.66 429.084 46.196L428.986 46.139C426.602 44.744 425.8 41.682 427.195 39.298C428.589 36.915 431.653 36.112 434.035 37.507L434.133 37.564C436.517 38.959 437.319 42.021 435.924 44.405C434.995 45.995 433.322 46.881 431.604 46.881Z" fill="#F75F20"/>
<path d="M456.505 61.2579C455.648 61.2579 454.778 61.0369 453.985 60.5729L453.887 60.5159C451.503 59.1209 450.701 56.0589 452.096 53.6749C453.49 51.2909 456.554 50.4889 458.936 51.8839L459.034 51.9409C461.418 53.3359 462.22 56.3979 460.825 58.7819C459.896 60.3719 458.223 61.2579 456.505 61.2579Z" fill="#F75F20"/>
<path d="M431.604 46.881C430.747 46.881 429.877 46.66 429.084 46.196L428.986 46.139C426.602 44.744 425.8 41.682 427.195 39.298C428.589 36.915 431.653 36.112 434.035 37.507L434.133 37.564C436.517 38.959 437.319 42.021 435.924 44.405C434.995 45.995 433.322 46.881 431.604 46.881Z" fill="#F75F20"/>
<path d="M456.505 61.2579C455.648 61.2579 454.778 61.0369 453.985 60.5729L453.887 60.5159C451.503 59.1209 450.701 56.0589 452.096 53.6749C453.49 51.2909 456.554 50.4889 458.936 51.8839L459.034 51.9409C461.418 53.3359 462.22 56.3979 460.825 58.7819C459.896 60.3719 458.223 61.2579 456.505 61.2579Z" fill="#F75F20"/>
<path d="M456.417 46.881C454.691 46.881 453.013 45.986 452.086 44.386C450.701 41.997 451.517 38.938 453.906 37.553L454.005 37.496C456.397 36.113 459.453 36.928 460.837 39.317C462.222 41.706 461.406 44.765 459.017 46.15L458.918 46.207C458.129 46.664 457.268 46.881 456.417 46.881Z" fill="#F75F20"/>
<path d="M431.516 61.258C429.798 61.258 428.125 60.372 427.196 58.782C425.801 56.398 426.603 53.336 428.987 51.941L429.085 51.884C431.466 50.491 434.531 51.291 435.925 53.675C437.32 56.059 436.518 59.121 434.134 60.516L434.036 60.573C433.243 61.037 432.374 61.258 431.516 61.258Z" fill="#F75F20"/>
<path d="M456.417 46.881C454.691 46.881 453.013 45.986 452.086 44.386C450.701 41.997 451.517 38.938 453.906 37.553L454.005 37.496C456.397 36.113 459.453 36.928 460.837 39.317C462.222 41.706 461.406 44.765 459.017 46.15L458.918 46.207C458.129 46.664 457.268 46.881 456.417 46.881Z" fill="#F75F20"/>
<path d="M431.516 61.258C429.798 61.258 428.125 60.372 427.196 58.782C425.801 56.398 426.603 53.336 428.987 51.941L429.085 51.884C431.466 50.491 434.531 51.291 435.925 53.675C437.32 56.059 436.518 59.121 434.134 60.516L434.036 60.573C433.243 61.037 432.374 61.258 431.516 61.258Z" fill="#F75F20"/>
<path d="M444.011 39.72C441.249 39.72 439.011 37.481 439.011 34.72V34.606C439.011 31.845 441.249 29.606 444.011 29.606C446.773 29.606 449.011 31.845 449.011 34.606V34.72C449.011 37.481 446.773 39.72 444.011 39.72Z" fill="#F75F20"/>
<path d="M444.011 68.4739C441.249 68.4739 439.011 66.2349 439.011 63.4739V63.3599C439.011 60.5989 441.249 58.3599 444.011 58.3599C446.773 58.3599 449.011 60.5989 449.011 63.3599V63.4739C449.011 66.2349 446.773 68.4739 444.011 68.4739Z" fill="#F75F20"/>
</g>
<defs>
<linearGradient id="paint0_linear" x1="52.1191" y1="256" x2="456.275" y2="256" gradientUnits="userSpaceOnUse">
<stop stop-color="#D2DEFF" stop-opacity="0"/>
<stop offset="1" stop-color="#B7C5FF"/>
</linearGradient>
<linearGradient id="paint1_linear" x1="52.1199" y1="256.001" x2="456.275" y2="256.001" gradientUnits="userSpaceOnUse">
<stop stop-color="#AECCEF" stop-opacity="0"/>
<stop offset="1" stop-color="#AECCEF"/>
</linearGradient>
<clipPath id="clip0">
<rect width="512" height="512" fill="white"/>
</clipPath>
</defs>
</svg>
