<svg width="512" height="512" viewBox="0 0 512 512" fill="none" xmlns="http://www.w3.org/2000/svg">
<g clip-path="url(#clip0)">
<path d="M461.2 27.4C397.4 -10.6 314.9 -8.50005 252.3 30.4C217.1 52.3 189.9 83.8 159.1 111C132.1 134.8 100.7 151.8 72.7 174.2C-28.5 255.6 -18.9001 475.2 123.7 504.3C185.5 516.9 269.9 521 306.2 460.7C340.8 403.2 352.4 344.3 420.1 313.8C443.7 303.2 483.1 303.7 499 280.3C519.2 250.8 494.1 220.3 480.8 194.6C463.6 161.5 460 128.9 472.1 93.4C482.4 63.2 489.7 49.6 461.2 27.4V27.4Z" fill="url(#paint0_linear)"/>
<path opacity="0.1" d="M448 217H413.7C409 217 405.2 220.8 405.2 225.5V228.8H382V67.6999C382 64.8999 379.8 62.7 377 62.7H189.5L130 122.2V163.4C106.4 168.2 88.6 189 88.6 214C88.6 215 88.6 216 88.7 217H64C59.3 217 55.5 220.8 55.5 225.5V381.9C55.5 386.6 59.3 390.4 64 390.4H98.3C103 390.4 106.8 386.6 106.8 381.9V376H136C135.3 382.2 137.3 388.7 142 393.4C148.2 399.6 157.2 401.1 164.9 398.1L167.3 400.5C164.2 408.1 165.8 417.2 172 423.4C178.2 429.6 187.2 431.1 194.9 428.1L197.3 430.5C194.2 438.1 195.8 447.2 202 453.4C208.2 459.6 217.2 461.1 224.9 458.1L227.3 460.5C224.2 468.1 225.8 477.2 232 483.4C238.2 489.6 247.2 491.1 254.9 488.1L257.9 491.1C266.2 499.4 279.6 499.4 287.9 491.1C296.2 482.8 296.2 469.4 287.9 461.1C296.2 469.4 309.6 469.4 317.9 461.1C322 457 324.1 451.5 324.1 446.1C324.1 440.7 322 435.3 317.9 431.1C326.2 439.4 339.6 439.4 347.9 431.1C356.2 422.8 356.2 409.4 347.9 401.1C356.1 409.3 369.3 409.4 377.6 401.4C384.6 394.7 385.7 384.2 381.4 376H405.5V381.9C405.5 386.6 409.3 390.4 414 390.4H448C452.7 390.4 456.5 386.6 456.5 381.9V225.5C456.6 220.8 452.7 217 448 217V217Z" fill="#1A3D73"/>
<path d="M382 284.2V43.7C382 40.9 379.8 38.7 377 38.7H189.5L130 98.1999V284.2H382Z" fill="white"/>
<path d="M130 98.1999H184.5C187.3 98.1999 189.5 95.9999 189.5 93.1999V38.7L130 98.1999Z" fill="#F75F20"/>
<path d="M269.3 212.3L158.5 323.1C150.1 331.5 149.9 345.4 158.5 353.7C166.8 361.7 180 361.6 188.2 353.4C179.9 361.7 179.9 375.1 188.2 383.4C196.5 391.7 209.9 391.7 218.2 383.4C209.9 391.7 209.9 405.1 218.2 413.4C226.5 421.7 239.9 421.7 248.2 413.4C239.9 421.7 239.9 435.1 248.2 443.4C256.5 451.7 269.9 451.7 278.2 443.4L369.4 352.2H423.6V204.8H287.4C280.6 204.8 274.1 207.5 269.3 212.3V212.3Z" fill="white"/>
<path d="M377.4 377.5C369.1 385.5 355.9 385.4 347.7 377.2C356 385.5 356 398.9 347.7 407.2C339.4 415.5 326 415.5 317.7 407.2C321.8 411.3 323.9 416.8 323.9 422.2C323.9 427.6 321.8 433 317.7 437.2C309.4 445.5 296 445.5 287.7 437.2C296 445.5 296 458.9 287.7 467.2C279.4 475.5 266 475.5 257.7 467.2L142.7 352.2H88.6V204.8H224.7C231.5 204.8 238 207.5 242.8 212.3L377.4 346.9C385.8 355.3 386 369.3 377.4 377.5Z" fill="white"/>
<path d="M261.9 459.4L281.8 439.5C290.1 431.2 290.1 417.8 281.8 409.5C273.5 401.2 260.1 401.2 251.8 409.5L231.9 429.4C223.6 437.7 223.6 451.1 231.9 459.4C240.2 467.7 253.6 467.7 261.9 459.4Z" fill="white"/>
<path d="M231.9 429.4L251.8 409.5C260.1 401.2 260.1 387.8 251.8 379.5C243.5 371.2 230.1 371.2 221.8 379.5L202 399.5C193.7 407.8 193.7 421.2 202 429.5C210.2 437.7 223.6 437.7 231.9 429.4Z" fill="white"/>
<path d="M202 399.5L221.9 379.6C230.2 371.3 230.2 357.9 221.9 349.6C213.6 341.3 200.2 341.3 191.9 349.6L172 369.5C163.7 377.8 163.7 391.2 172 399.5C180.3 407.7 193.7 407.7 202 399.5Z" fill="white"/>
<path d="M172 369.5L191.9 349.6C200.2 341.3 200.2 327.9 191.9 319.6C183.6 311.3 170.2 311.3 161.9 319.6L142 339.5C133.7 347.8 133.7 361.2 142 369.5C150.3 377.8 163.7 377.8 172 369.5Z" fill="white"/>
<path d="M348.7 204.8H287.3C280.5 204.8 274 207.5 269.2 212.3L221.4 260.1C213.1 268.4 213.1 282 221.4 290.3C229.7 298.6 243.3 298.6 251.6 290.3L280.6 261.3C285.2 256.7 291.4 254.1 297.9 254.1H348.7V204.8Z" fill="white"/>
<path d="M106.8 201.6V358C106.8 362.7 103 366.5 98.3 366.5H64C59.3 366.5 55.5 362.7 55.5 358V201.6C55.5 196.9 59.3 193.1 64 193.1H98.3C102.9 193 106.8 196.8 106.8 201.6Z" fill="#3678D3"/>
<path d="M448 366.5H413.7C409 366.5 405.2 362.7 405.2 358V201.5C405.2 196.8 409 193 413.7 193H448C452.7 193 456.5 196.8 456.5 201.5V358C456.6 362.7 452.7 366.5 448 366.5Z" fill="#F75F20"/>
<path d="M266.1 181.2H252.4C246.9 181.2 242.4 176.7 242.4 171.2V75.8999C242.4 70.3999 246.9 65.8999 252.4 65.8999H266.1C271.6 65.8999 276.1 70.3999 276.1 75.8999V171.2C276.1 176.7 271.7 181.2 266.1 181.2ZM252.5 75.8999V171.2H266.2V75.8999H252.5Z" fill="#1A3D73"/>
<path d="M247.5 128.8V171.2C247.5 174 249.7 176.2 252.5 176.2H266.2C269 176.2 271.2 174 271.2 171.2V128.8H247.5Z" fill="#3678D3"/>
<path d="M306.7 181.2H293C287.5 181.2 283 176.7 283 171.2V105.9C283 100.4 287.5 95.8999 293 95.8999H306.7C312.2 95.8999 316.7 100.4 316.7 105.9V171.2C316.7 176.7 312.2 181.2 306.7 181.2ZM293 105.9V171.2H306.7V105.9H293Z" fill="#1A3D73"/>
<path d="M288 158.8V171.2C288 174 290.2 176.2 293 176.2H306.7C309.5 176.2 311.7 174 311.7 171.2V158.8H288Z" fill="#3678D3"/>
<path d="M347.2 176.2H333.5C330.7 176.2 328.5 174 328.5 171.2V75.8999C328.5 73.0999 330.7 70.8999 333.5 70.8999H347.2C350 70.8999 352.2 73.0999 352.2 75.8999V171.2C352.2 173.9 350 176.2 347.2 176.2Z" fill="white"/>
<path d="M328.6 98.7998V171.2C328.6 174 330.8 176.2 333.6 176.2H347.3C350.1 176.2 352.3 174 352.3 171.2V98.7998C352.2 98.7998 328.6 98.7998 328.6 98.7998V98.7998Z" fill="#3678D3"/>
<path d="M266.1 181.2H252.4C246.9 181.2 242.4 176.7 242.4 171.2V75.8999C242.4 70.3999 246.9 65.8999 252.4 65.8999H266.1C271.6 65.8999 276.1 70.3999 276.1 75.8999V171.2C276.1 176.7 271.7 181.2 266.1 181.2ZM252.5 75.8999V171.2H266.2V75.8999H252.5Z" fill="#1A3D73"/>
<path d="M306.7 181.2H293C287.5 181.2 283 176.7 283 171.2V105.9C283 100.4 287.5 95.8999 293 95.8999H306.7C312.2 95.8999 316.7 100.4 316.7 105.9V171.2C316.7 176.7 312.2 181.2 306.7 181.2ZM293 105.9V171.2H306.7V105.9H293Z" fill="#1A3D73"/>
<path d="M347.2 181.2H333.5C328 181.2 323.5 176.7 323.5 171.2V75.8999C323.5 70.3999 328 65.8999 333.5 65.8999H347.2C352.7 65.8999 357.2 70.3999 357.2 75.8999V171.2C357.2 176.7 352.7 181.2 347.2 181.2ZM333.6 75.8999V171.2H347.3V75.8999H333.6Z" fill="#1A3D73"/>
<path d="M220.5 138.7H210C207.2 138.7 205 136.5 205 133.7C205 130.9 207.2 128.7 210 128.7H220.5C223.3 128.7 225.5 130.9 225.5 133.7C225.5 136.5 223.3 138.7 220.5 138.7Z" fill="#1A3D73"/>
<path d="M187.4 138.7H182.9C180.1 138.7 177.9 136.5 177.9 133.7C177.9 130.9 180.1 128.7 182.9 128.7H187.4C190.2 128.7 192.4 130.9 192.4 133.7C192.4 136.5 190.2 138.7 187.4 138.7Z" fill="#1A3D73"/>
<path d="M220.5 159H164.8C162 159 159.8 156.8 159.8 154C159.8 151.2 162 149 164.8 149H220.5C223.3 149 225.5 151.2 225.5 154C225.5 156.8 223.3 159 220.5 159Z" fill="#1A3D73"/>
<path d="M220.5 176.3H164.8C162 176.3 159.8 174.1 159.8 171.3C159.8 168.5 162 166.3 164.8 166.3H220.5C223.3 166.3 225.5 168.5 225.5 171.3C225.5 174 223.3 176.3 220.5 176.3Z" fill="#1A3D73"/>
<path d="M140.2 241.6C168.698 241.6 191.8 218.498 191.8 190C191.8 161.502 168.698 138.4 140.2 138.4C111.702 138.4 88.6 161.502 88.6 190C88.6 218.498 111.702 241.6 140.2 241.6Z" fill="white"/>
<path d="M448 188H413.7C406.8 188 401.1 193.2 400.3 199.8H387V43.7C387 38.2 382.5 33.7 377 33.7H331.5C328.7 33.7 326.5 35.9 326.5 38.7C326.5 41.5 328.7 43.7 331.5 43.7H377V199.8H287.3C279.1 199.8 271.4 203 265.7 208.8L256 218.5L246.3 208.8C240.5 203 232.8 199.8 224.7 199.8H196C196.6 196.6 196.9 193.4 196.9 190C196.9 158.8 171.5 133.4 140.3 133.4C138.5 133.4 136.8 133.5 135.1 133.7V103.3H184.6C190.1 103.3 194.6 98.8 194.6 93.3V43.7999H298.6C301.4 43.7999 303.6 41.5999 303.6 38.7999C303.6 35.9999 301.4 33.7999 298.6 33.7999H189.6C188.3 33.7999 187 34.2999 186.1 35.2999L126.6 94.8C125.7 95.7 125.1 97 125.1 98.3V135.6C101.8 142 84.5 163 83.6 188H64C56.5 188 50.5 194.1 50.5 201.5V358C50.5 365.5 56.6 371.5 64 371.5H98.3C105.8 371.5 111.8 365.4 111.8 358V357.1H131C131.6 362.9 134.1 368.6 138.5 373.1C143.4 378 150 380.8 157 380.8C158.4 380.8 159.8 380.7 161.1 380.5C159.8 388.5 162.3 397 168.4 403.1C173.5 408.2 180.2 410.8 186.9 410.8C188.3 410.8 189.7 410.7 191 410.5C189.7 418.5 192.2 427 198.3 433.1C203.4 438.2 210.1 440.8 216.8 440.8C218.2 440.8 219.6 440.7 220.9 440.5C219.6 448.5 222.1 457 228.2 463.1C233.3 468.2 240 470.8 246.7 470.8C248.9 470.8 251.1 470.5 253.2 470L254.1 470.9C259 475.8 265.6 478.6 272.6 478.6C279.6 478.6 286.2 475.9 291.1 470.9C297.3 464.8 299.7 456.3 298.4 448.3C306.4 449.6 314.9 447.1 321 441C325.9 436.1 328.7 429.5 328.7 422.5C328.7 421.1 328.6 419.7 328.4 418.4C329.7 418.6 331.1 418.7 332.5 418.7C339.5 418.7 346.1 416 351 411C357.2 404.8 359.6 396.3 358.3 388.3C366.2 389.5 374.5 387.2 380.6 381.4C385.6 376.6 388.4 370 388.5 362.9C388.5 361 388.3 359.2 388 357.3H400V358.2C400 365.7 406.1 371.7 413.5 371.7H448C455.5 371.7 461.5 365.6 461.5 358.2V201.5C461.6 194.1 455.5 188 448 188V188ZM142 93.1999L184.5 50.7V93.1999H142ZM140.2 143.4C165.9 143.4 186.8 164.3 186.8 190C186.8 215.7 165.9 236.6 140.2 236.6C114.5 236.6 93.6 215.7 93.6 190C93.6 164.3 114.5 143.4 140.2 143.4ZM98.2 361.5H64C62.1 361.5 60.5 359.9 60.5 358V201.5C60.5 199.6 62.1 198 64 198H84.2C86.1 211.2 92.5 222.9 101.8 231.6V358C101.8 359.9 100.2 361.5 98.2 361.5ZM157 370.7C152.7 370.7 148.6 369 145.6 366C139.3 359.7 139.3 349.4 145.6 343.1L165.5 323.2C168.6 320.1 172.6 318.5 176.9 318.5C181.2 318.5 185.3 320.2 188.3 323.2C194.6 329.5 194.6 339.8 188.3 346.1L168.5 366C165.4 369 161.3 370.7 157 370.7ZM187 400.7C182.7 400.7 178.6 399 175.6 396C169.3 389.7 169.3 379.4 175.6 373.1L195.5 353.2C198.6 350.1 202.6 348.5 206.9 348.5C211.2 348.5 215.3 350.2 218.3 353.2C224.6 359.5 224.6 369.8 218.3 376.1L198.4 396C195.4 399 191.3 400.7 187 400.7ZM216.9 430.6C212.6 430.6 208.5 428.9 205.5 425.9C199.2 419.6 199.2 409.3 205.5 403L225.4 383.1C228.6 379.9 232.7 378.4 236.8 378.4C240.9 378.4 245.1 380 248.2 383.1C251.3 386.2 252.9 390.2 252.9 394.5C252.9 398.8 251.2 402.9 248.2 405.9L228.3 425.8C225.3 428.9 221.3 430.6 216.9 430.6ZM235.4 455.8C229.1 449.5 229.1 439.2 235.4 432.9L255.3 413C258.5 409.8 262.6 408.3 266.7 408.3C270.8 408.3 275 409.9 278.1 413C284.4 419.3 284.4 429.6 278.1 435.9L258.2 455.8C252 462.2 241.8 462.2 235.4 455.8V455.8ZM284.3 463.6C281.2 466.7 277.2 468.3 272.9 468.3C269.3 468.3 265.9 467.1 263.1 465C263.9 464.4 264.7 463.7 265.5 462.9L285.4 443L285.9 442.5C288 445.3 289.1 448.6 289.1 452.1C289 456.4 287.3 460.5 284.3 463.6V463.6ZM384 347.1C383.1 345.8 382.1 344.5 380.9 343.4L313.9 276.4C311.9 274.4 308.8 274.4 306.8 276.4C304.8 278.4 304.8 281.5 306.8 283.5L373.8 350.5C377 353.7 378.8 358.1 378.7 362.6C378.7 367 377 371 373.9 373.9C367.6 380 357.4 379.9 351.2 373.7L287.6 310.1C285.6 308.1 282.5 308.1 280.5 310.1C278.5 312.1 278.5 315.2 280.5 317.2L344.1 380.8C350.4 387.1 350.4 397.4 344.1 403.7C337.8 410 327.5 410 321.2 403.7L257.6 340.1C255.6 338.1 252.5 338.1 250.5 340.1C248.5 342.1 248.5 345.2 250.5 347.2L314.1 410.8C317.2 413.9 318.8 417.9 318.8 422.2C318.8 426.5 317.1 430.6 314.1 433.6C307.8 439.9 297.5 439.9 291.2 433.6C294.7 424.3 292.7 413.4 285.2 405.9C279.1 399.8 270.6 397.3 262.6 398.6C262.8 397.3 262.9 395.9 262.9 394.5C262.9 387.5 260.2 380.9 255.2 376C249 369.8 240.6 367.4 232.6 368.7C233.9 360.7 231.4 352.2 225.3 346.1C220.4 341.2 213.8 338.4 206.8 338.4C205.4 338.4 204 338.5 202.7 338.7C204 330.7 201.5 322.2 195.4 316.1C190.5 311.2 183.9 308.4 176.9 308.4C169.9 308.4 163.3 311.1 158.4 316.1L138.5 336C135.3 339.2 133.1 343 131.9 347.1H111.8V239C120.2 243.9 129.9 246.7 140.2 246.7C164.5 246.7 185.2 231.3 193.3 209.8H224.7C230.2 209.8 235.4 211.9 239.3 215.8L249 225.5L218 256.5C213 261.5 210.3 268.1 210.3 275.1C210.3 282.1 213 288.8 218 293.7C223.1 298.8 229.9 301.4 236.6 301.4C243.3 301.4 250.1 298.8 255.2 293.7L284.2 264.7C287.9 261 292.8 259 298 259H348.8C351.6 259 353.8 256.8 353.8 254C353.8 251.2 351.6 249 348.8 249H298C290.1 249 282.7 252.1 277.1 257.6L248.1 286.6C241.7 293 231.4 293 225 286.6C221.9 283.5 220.2 279.4 220.2 275C220.2 270.6 221.9 266.5 225 263.4L272.8 215.6C276.7 211.7 281.9 209.6 287.4 209.6H400.3V346.9L384 347.1ZM451.6 358C451.6 359.9 450 361.5 448.1 361.5H413.8C411.9 361.5 410.3 359.9 410.3 358V201.5C410.3 199.6 411.9 198 413.8 198H448C449.9 198 451.5 199.6 451.5 201.5V358H451.6Z" fill="#1A3D73"/>
<path d="M146 185H145.2V177H153.1C155.9 177 158.1 174.8 158.1 172C158.1 169.2 155.9 167 153.1 167H145.2V165.3C145.2 162.5 143 160.3 140.2 160.3C137.4 160.3 135.2 162.5 135.2 165.3V167H134.4C126.7 167 120.4 173.3 120.4 181C120.4 188.7 126.7 195 134.4 195H135.2V203H127.3C124.5 203 122.3 205.2 122.3 208C122.3 210.8 124.5 213 127.3 213H135.2V214.7C135.2 217.5 137.4 219.7 140.2 219.7C143 219.7 145.2 217.5 145.2 214.7V213H146C153.7 213 160 206.7 160 199C160 191.3 153.7 185 146 185ZM134.4 185C132.2 185 130.4 183.2 130.4 181C130.4 178.8 132.2 177 134.4 177H135.2V185H134.4ZM146 203H145.2V195H146C148.2 195 150 196.8 150 199C150 201.2 148.2 203 146 203Z" fill="#1A3D73"/>
<path d="M96.6 125.5C95.3 125.5 94 125 93.1 124L88.6 119.5L84.1 124C82.1 126 79 126 77 124C75 122 75 118.9 77 116.9L85 108.9C87 106.9 90.1 106.9 92.1 108.9L100.1 116.9C102.1 118.9 102.1 122 100.1 124C99.1 125 97.9 125.5 96.6 125.5Z" fill="#F75F20"/>
<path d="M176.7 454.4C175.4 454.4 174.1 453.9 173.2 452.9L168.7 448.4L164.2 452.9C162.2 454.9 159.1 454.9 157.1 452.9C155.1 450.9 155.1 447.8 157.1 445.8L165.1 437.8C167.1 435.8 170.2 435.8 172.2 437.8L180.2 445.8C182.2 447.8 182.2 450.9 180.2 452.9C179.3 453.9 178 454.4 176.7 454.4Z" fill="#F75F20"/>
<path d="M438.2 146H435.2V143C435.2 140.2 433 138 430.2 138C427.4 138 425.2 140.2 425.2 143V146H422.2C419.4 146 417.2 148.2 417.2 151C417.2 153.8 419.4 156 422.2 156H425.2V159C425.2 161.8 427.4 164 430.2 164C433 164 435.2 161.8 435.2 159V156H438.2C441 156 443.2 153.8 443.2 151C443.2 148.2 441 146 438.2 146Z" fill="#3678D3"/>
<path d="M133.4 421.4H130.4V418.4C130.4 415.6 128.2 413.4 125.4 413.4C122.6 413.4 120.4 415.6 120.4 418.4V421.4H117.4C114.6 421.4 112.4 423.6 112.4 426.4C112.4 429.2 114.6 431.4 117.4 431.4H120.4V434.4C120.4 437.2 122.6 439.4 125.4 439.4C128.2 439.4 130.4 437.2 130.4 434.4V431.4H133.4C136.2 431.4 138.4 429.2 138.4 426.4C138.4 423.6 136.2 421.4 133.4 421.4Z" fill="#3678D3"/>
<path d="M430.4 107.2C429.1 107.2 427.8 106.7 426.9 105.7L422.4 101.2L418.6 105C416.6 107 413.5 107 411.5 105C409.5 103 409.5 99.8999 411.5 97.8999L418.8 90.5999C420.8 88.5999 423.9 88.5999 425.9 90.5999L433.9 98.5999C435.9 100.6 435.9 103.7 433.9 105.7C432.9 106.7 431.7 107.2 430.4 107.2Z" fill="#F75F20"/>
</g>
<defs>
<linearGradient id="paint0_linear" x1="5.35822" y1="256.021" x2="506.579" y2="256.021" gradientUnits="userSpaceOnUse">
<stop stop-color="#AECCEF" stop-opacity="0"/>
<stop offset="1" stop-color="#AECCEF"/>
</linearGradient>
<clipPath id="clip0">
<rect width="512" height="512" fill="white"/>
</clipPath>
</defs>
</svg>
