<svg xmlns="http://www.w3.org/2000/svg" viewBox="0 0 334.79 93.39"><defs><style>.cls-1,.cls-2,.cls-4{fill:#fff;}.cls-2{font-size:26.57px;letter-spacing:0.05em;}.cls-2,.cls-4{font-family:Montserrat-ExtraBoldItalic, Montserrat;font-weight:800;font-style:italic;}.cls-3{letter-spacing:0.01em;}.cls-4{font-size:57.26px;letter-spacing:0.01em;}.cls-5{letter-spacing:0em;}</style></defs><g id="Layer_2" data-name="Layer 2"><g id="Layer_1-2" data-name="Layer 1"><path class="cls-1" d="M40.86,12.22H0Q2.28,6.11,4.55,0H61c-.61,1.62-1.22,3.25-1.84,4.87C56.68,10.64,53.81,12.22,40.86,12.22Z"/><path class="cls-1" d="M40.86,12.22H0L61,0c-.61,1.62-1.22,3.25-1.84,4.87C56.68,10.64,53.81,12.22,40.86,12.22Z"/><path class="cls-1" d="M44.09,47.92,39.86,60.25C5.52,62.58,5.29,45.55,6.43,38.73A98.78,98.78,0,0,1,9,28c.86-3,1.79-5.78,2.74-8.38H41.94l-2.6,7a8.54,8.54,0,0,1-1.68,2.54c-2.16,2.13-5.08,2.39-9.61,2.69a47.22,47.22,0,0,1-5.88,0c-.69,1.27-2.94,9-1.38,11.5C23.1,48.27,31.11,48.43,44.09,47.92Z"/><path class="cls-1" d="M44.09,47.92,39.86,60.25C5.52,62.58,5.29,45.55,6.43,38.73,7,35.36,9,28,9,28l32.9-8.38-2.6,7a8.54,8.54,0,0,1-1.68,2.54c-2.16,2.13-5.08,2.39-9.61,2.69a47.22,47.22,0,0,1-5.88,0c-.69,1.27-2.94,9-1.38,11.5C23.1,48.27,31.11,48.43,44.09,47.92Z"/><text class="cls-2" transform="matrix(1.14, 0, -0.11, 0.99, 179.49, 86.31)">DIGI<tspan class="cls-3" x="65.21" y="0">T</tspan><tspan x="82.35" y="0">AL</tspan></text><text class="cls-4" transform="matrix(1.14, 0, -0.11, 0.99, 46.25, 59.6)">NTRU<tspan class="cls-5" x="171.51" y="0">S</tspan><tspan x="208.38" y="0">T</tspan></text></g></g></svg>