<svg width="120" height="120" viewBox="0 0 120 120" fill="none" xmlns="http://www.w3.org/2000/svg">
<rect width="120" height="120" fill="white"/>
<path d="M30.5836 41.216C29.2996 41.216 28.1356 40.94 27.0916 40.388C26.0596 39.824 25.2436 39.05 24.6436 38.066C24.0556 37.07 23.7616 35.948 23.7616 34.7C23.7616 33.452 24.0556 32.336 24.6436 31.352C25.2436 30.356 26.0596 29.582 27.0916 29.03C28.1356 28.466 29.3056 28.184 30.6016 28.184C31.6936 28.184 32.6776 28.376 33.5536 28.76C34.4416 29.144 35.1856 29.696 35.7856 30.416L33.9136 32.144C33.0616 31.16 32.0056 30.668 30.7456 30.668C29.9656 30.668 29.2696 30.842 28.6576 31.19C28.0456 31.526 27.5656 32 27.2176 32.612C26.8816 33.224 26.7136 33.92 26.7136 34.7C26.7136 35.48 26.8816 36.176 27.2176 36.788C27.5656 37.4 28.0456 37.88 28.6576 38.228C29.2696 38.564 29.9656 38.732 30.7456 38.732C32.0056 38.732 33.0616 38.234 33.9136 37.238L35.7856 38.966C35.1856 39.698 34.4416 40.256 33.5536 40.64C32.6656 41.024 31.6756 41.216 30.5836 41.216ZM49.7984 28.4L44.3444 41H41.4644L36.0284 28.4H39.1784L43.0124 37.4L46.9004 28.4H49.7984ZM58.5338 41.216C57.6818 41.216 56.8958 41.06 56.1758 40.748C55.4678 40.424 54.8858 39.968 54.4298 39.38L56.0498 37.436C56.7338 38.36 57.5138 38.822 58.3898 38.822C59.5778 38.822 60.1718 38.126 60.1718 36.734V30.74H55.7438V28.4H63.0698V36.572C63.0698 38.12 62.6858 39.284 61.9178 40.064C61.1498 40.832 60.0218 41.216 58.5338 41.216ZM69.6581 31.172C71.1581 31.172 72.3101 31.532 73.1141 32.252C73.9181 32.96 74.3201 34.034 74.3201 35.474V41H71.6921V39.794C71.1641 40.694 70.1801 41.144 68.7401 41.144C67.9961 41.144 67.3481 41.018 66.7961 40.766C66.2561 40.514 65.8421 40.166 65.5541 39.722C65.2661 39.278 65.1221 38.774 65.1221 38.21C65.1221 37.31 65.4581 36.602 66.1301 36.086C66.8141 35.57 67.8641 35.312 69.2801 35.312H71.5121C71.5121 34.7 71.3261 34.232 70.9541 33.908C70.5821 33.572 70.0241 33.404 69.2801 33.404C68.7641 33.404 68.2541 33.488 67.7501 33.656C67.2581 33.812 66.8381 34.028 66.4901 34.304L65.4821 32.342C66.0101 31.97 66.6401 31.682 67.3721 31.478C68.1161 31.274 68.8781 31.172 69.6581 31.172ZM69.4421 39.254C69.9221 39.254 70.3481 39.146 70.7201 38.93C71.0921 38.702 71.3561 38.372 71.5121 37.94V36.95H69.5861C68.4341 36.95 67.8581 37.328 67.8581 38.084C67.8581 38.444 67.9961 38.732 68.2721 38.948C68.5601 39.152 68.9501 39.254 69.4421 39.254ZM86.2976 31.316L81.9236 41.594C81.4796 42.71 80.9276 43.496 80.2676 43.952C79.6196 44.408 78.8336 44.636 77.9096 44.636C77.4056 44.636 76.9076 44.558 76.4156 44.402C75.9236 44.246 75.5216 44.03 75.2096 43.754L76.2356 41.756C76.4516 41.948 76.6976 42.098 76.9736 42.206C77.2616 42.314 77.5436 42.368 77.8196 42.368C78.2036 42.368 78.5156 42.272 78.7556 42.08C78.9956 41.9 79.2116 41.594 79.4036 41.162L79.4396 41.072L75.2456 31.316H78.1436L80.8616 37.886L83.5976 31.316H86.2976ZM91.0331 31.172C92.5331 31.172 93.6851 31.532 94.4891 32.252C95.2931 32.96 95.6951 34.034 95.6951 35.474V41H93.0671V39.794C92.5391 40.694 91.5551 41.144 90.1151 41.144C89.3711 41.144 88.7231 41.018 88.1711 40.766C87.6311 40.514 87.2171 40.166 86.9291 39.722C86.6411 39.278 86.4971 38.774 86.4971 38.21C86.4971 37.31 86.8331 36.602 87.5051 36.086C88.1891 35.57 89.2391 35.312 90.6551 35.312H92.8871C92.8871 34.7 92.7011 34.232 92.3291 33.908C91.9571 33.572 91.3991 33.404 90.6551 33.404C90.1391 33.404 89.6291 33.488 89.1251 33.656C88.6331 33.812 88.2131 34.028 87.8651 34.304L86.8571 32.342C87.3851 31.97 88.0151 31.682 88.7471 31.478C89.4911 31.274 90.2531 31.172 91.0331 31.172ZM90.8171 39.254C91.2971 39.254 91.7231 39.146 92.0951 38.93C92.4671 38.702 92.7311 38.372 92.8871 37.94V36.95H90.9611C89.8091 36.95 89.2331 37.328 89.2331 38.084C89.2331 38.444 89.3711 38.732 89.6471 38.948C89.9351 39.152 90.3251 39.254 90.8171 39.254ZM42.2207 63.3H36.3707L35.2547 66H32.2667L37.8827 53.4H40.7627L46.3967 66H43.3367L42.2207 63.3ZM41.3027 61.086L39.3047 56.262L37.3067 61.086H41.3027ZM53.23 56.172C54.13 56.172 54.946 56.382 55.678 56.802C56.422 57.21 57.004 57.792 57.424 58.548C57.844 59.292 58.054 60.162 58.054 61.158C58.054 62.154 57.844 63.03 57.424 63.786C57.004 64.53 56.422 65.112 55.678 65.532C54.946 65.94 54.13 66.144 53.23 66.144C51.898 66.144 50.884 65.724 50.188 64.884V66H47.506V52.644H50.314V57.342C51.022 56.562 51.994 56.172 53.23 56.172ZM52.744 63.84C53.464 63.84 54.052 63.6 54.508 63.12C54.976 62.628 55.21 61.974 55.21 61.158C55.21 60.342 54.976 59.694 54.508 59.214C54.052 58.722 53.464 58.476 52.744 58.476C52.024 58.476 51.43 58.722 50.962 59.214C50.506 59.694 50.278 60.342 50.278 61.158C50.278 61.974 50.506 62.628 50.962 63.12C51.43 63.6 52.024 63.84 52.744 63.84ZM63.6815 56.172C65.1815 56.172 66.3335 56.532 67.1375 57.252C67.9415 57.96 68.3435 59.034 68.3435 60.474V66H65.7155V64.794C65.1875 65.694 64.2035 66.144 62.7635 66.144C62.0195 66.144 61.3715 66.018 60.8195 65.766C60.2795 65.514 59.8655 65.166 59.5775 64.722C59.2895 64.278 59.1455 63.774 59.1455 63.21C59.1455 62.31 59.4815 61.602 60.1535 61.086C60.8375 60.57 61.8875 60.312 63.3035 60.312H65.5355C65.5355 59.7 65.3495 59.232 64.9775 58.908C64.6055 58.572 64.0475 58.404 63.3035 58.404C62.7875 58.404 62.2775 58.488 61.7735 58.656C61.2815 58.812 60.8615 59.028 60.5135 59.304L59.5055 57.342C60.0335 56.97 60.6635 56.682 61.3955 56.478C62.1395 56.274 62.9015 56.172 63.6815 56.172ZM63.4655 64.254C63.9455 64.254 64.3715 64.146 64.7435 63.93C65.1155 63.702 65.3795 63.372 65.5355 62.94V61.95H63.6095C62.4575 61.95 61.8815 62.328 61.8815 63.084C61.8815 63.444 62.0195 63.732 62.2955 63.948C62.5835 64.152 62.9735 64.254 63.4655 64.254ZM80.8543 52.644V66H78.1723V64.884C77.4763 65.724 76.4683 66.144 75.1483 66.144C74.2363 66.144 73.4083 65.94 72.6643 65.532C71.9323 65.124 71.3563 64.542 70.9363 63.786C70.5163 63.03 70.3063 62.154 70.3063 61.158C70.3063 60.162 70.5163 59.286 70.9363 58.53C71.3563 57.774 71.9323 57.192 72.6643 56.784C73.4083 56.376 74.2363 56.172 75.1483 56.172C76.3843 56.172 77.3503 56.562 78.0463 57.342V52.644H80.8543ZM75.6343 63.84C76.3423 63.84 76.9303 63.6 77.3983 63.12C77.8663 62.628 78.1003 61.974 78.1003 61.158C78.1003 60.342 77.8663 59.694 77.3983 59.214C76.9303 58.722 76.3423 58.476 75.6343 58.476C74.9143 58.476 74.3203 58.722 73.8523 59.214C73.3843 59.694 73.1503 60.342 73.1503 61.158C73.1503 61.974 73.3843 62.628 73.8523 63.12C74.3203 63.6 74.9143 63.84 75.6343 63.84ZM83.4532 56.316H86.2612V66H83.4532V56.316ZM84.8572 54.966C84.3412 54.966 83.9212 54.816 83.5972 54.516C83.2732 54.216 83.1112 53.844 83.1112 53.4C83.1112 52.956 83.2732 52.584 83.5972 52.284C83.9212 51.984 84.3412 51.834 84.8572 51.834C85.3732 51.834 85.7932 51.978 86.1172 52.266C86.4412 52.554 86.6032 52.914 86.6032 53.346C86.6032 53.814 86.4412 54.204 86.1172 54.516C85.7932 54.816 85.3732 54.966 84.8572 54.966ZM27.9992 91.216C27.0032 91.216 26.0372 91.084 25.1012 90.82C24.1772 90.544 23.4332 90.19 22.8692 89.758L23.8592 87.562C24.3992 87.958 25.0412 88.276 25.7852 88.516C26.5292 88.756 27.2732 88.876 28.0172 88.876C28.8452 88.876 29.4572 88.756 29.8532 88.516C30.2492 88.264 30.4472 87.934 30.4472 87.526C30.4472 87.226 30.3272 86.98 30.0872 86.788C29.8592 86.584 29.5592 86.422 29.1872 86.302C28.8272 86.182 28.3352 86.05 27.7112 85.906C26.7512 85.678 25.9652 85.45 25.3532 85.222C24.7412 84.994 24.2132 84.628 23.7692 84.124C23.3372 83.62 23.1212 82.948 23.1212 82.108C23.1212 81.376 23.3192 80.716 23.7152 80.128C24.1112 79.528 24.7052 79.054 25.4972 78.706C26.3012 78.358 27.2792 78.184 28.4312 78.184C29.2352 78.184 30.0212 78.28 30.7892 78.472C31.5572 78.664 32.2292 78.94 32.8052 79.3L31.9052 81.514C30.7412 80.854 29.5772 80.524 28.4132 80.524C27.5972 80.524 26.9912 80.656 26.5952 80.92C26.2112 81.184 26.0192 81.532 26.0192 81.964C26.0192 82.396 26.2412 82.72 26.6852 82.936C27.1412 83.14 27.8312 83.344 28.7552 83.548C29.7152 83.776 30.5012 84.004 31.1132 84.232C31.7252 84.46 32.2472 84.82 32.6792 85.312C33.1232 85.804 33.3452 86.47 33.3452 87.31C33.3452 88.03 33.1412 88.69 32.7332 89.29C32.3372 89.878 31.7372 90.346 30.9332 90.694C30.1292 91.042 29.1512 91.216 27.9992 91.216ZM44.6258 86.194C44.6258 86.23 44.6078 86.482 44.5718 86.95H37.2458C37.3778 87.55 37.6898 88.024 38.1818 88.372C38.6738 88.72 39.2858 88.894 40.0178 88.894C40.5218 88.894 40.9658 88.822 41.3498 88.678C41.7458 88.522 42.1118 88.282 42.4478 87.958L43.9418 89.578C43.0298 90.622 41.6978 91.144 39.9458 91.144C38.8538 91.144 37.8878 90.934 37.0478 90.514C36.2078 90.082 35.5598 89.488 35.1038 88.732C34.6478 87.976 34.4198 87.118 34.4198 86.158C34.4198 85.21 34.6418 84.358 35.0858 83.602C35.5418 82.834 36.1598 82.24 36.9398 81.82C37.7318 81.388 38.6138 81.172 39.5858 81.172C40.5338 81.172 41.3918 81.376 42.1598 81.784C42.9278 82.192 43.5278 82.78 43.9598 83.548C44.4038 84.304 44.6258 85.186 44.6258 86.194ZM39.6038 83.296C38.9678 83.296 38.4338 83.476 38.0018 83.836C37.5698 84.196 37.3058 84.688 37.2098 85.312H41.9798C41.8838 84.7 41.6198 84.214 41.1878 83.854C40.7558 83.482 40.2278 83.296 39.6038 83.296ZM52.3812 81.172C53.5812 81.172 54.5472 81.532 55.2792 82.252C56.0232 82.972 56.3952 84.04 56.3952 85.456V91H53.5872V85.888C53.5872 85.12 53.4192 84.55 53.0832 84.178C52.7472 83.794 52.2612 83.602 51.6252 83.602C50.9172 83.602 50.3532 83.824 49.9332 84.268C49.5132 84.7 49.3032 85.348 49.3032 86.212V91H46.4952V81.316H49.1772V82.45C49.5492 82.042 50.0112 81.73 50.5632 81.514C51.1152 81.286 51.7212 81.172 52.3812 81.172ZM65.1865 90.532C64.9105 90.736 64.5685 90.892 64.1605 91C63.7645 91.096 63.3445 91.144 62.9005 91.144C61.7485 91.144 60.8545 90.85 60.2185 90.262C59.5945 89.674 59.2825 88.81 59.2825 87.67V83.692H57.7885V81.532H59.2825V79.174H62.0905V81.532H64.5025V83.692H62.0905V87.634C62.0905 88.042 62.1925 88.36 62.3965 88.588C62.6125 88.804 62.9125 88.912 63.2965 88.912C63.7405 88.912 64.1185 88.792 64.4305 88.552L65.1865 90.532ZM71.072 91.144C70.052 91.144 69.134 90.934 68.318 90.514C67.514 90.082 66.884 89.488 66.428 88.732C65.972 87.976 65.744 87.118 65.744 86.158C65.744 85.198 65.972 84.34 66.428 83.584C66.884 82.828 67.514 82.24 68.318 81.82C69.134 81.388 70.052 81.172 71.072 81.172C72.092 81.172 73.004 81.388 73.808 81.82C74.612 82.24 75.242 82.828 75.698 83.584C76.154 84.34 76.382 85.198 76.382 86.158C76.382 87.118 76.154 87.976 75.698 88.732C75.242 89.488 74.612 90.082 73.808 90.514C73.004 90.934 72.092 91.144 71.072 91.144ZM71.072 88.84C71.792 88.84 72.38 88.6 72.836 88.12C73.304 87.628 73.538 86.974 73.538 86.158C73.538 85.342 73.304 84.694 72.836 84.214C72.38 83.722 71.792 83.476 71.072 83.476C70.352 83.476 69.758 83.722 69.29 84.214C68.822 84.694 68.588 85.342 68.588 86.158C68.588 86.974 68.822 87.628 69.29 88.12C69.758 88.6 70.352 88.84 71.072 88.84ZM81.5169 91.144C80.7129 91.144 79.9269 91.048 79.1589 90.856C78.3909 90.652 77.7789 90.4 77.3229 90.1L78.2589 88.084C78.6909 88.36 79.2129 88.588 79.8249 88.768C80.4369 88.936 81.0369 89.02 81.6249 89.02C82.8129 89.02 83.4069 88.726 83.4069 88.138C83.4069 87.862 83.2449 87.664 82.9209 87.544C82.5969 87.424 82.0989 87.322 81.4269 87.238C80.6349 87.118 79.9809 86.98 79.4649 86.824C78.9489 86.668 78.4989 86.392 78.1149 85.996C77.7429 85.6 77.5569 85.036 77.5569 84.304C77.5569 83.692 77.7309 83.152 78.0789 82.684C78.4389 82.204 78.9549 81.832 79.6269 81.568C80.3109 81.304 81.1149 81.172 82.0389 81.172C82.7229 81.172 83.4009 81.25 84.0729 81.406C84.7569 81.55 85.3209 81.754 85.7649 82.018L84.8289 84.016C83.9769 83.536 83.0469 83.296 82.0389 83.296C81.4389 83.296 80.9889 83.38 80.6889 83.548C80.3889 83.716 80.2389 83.932 80.2389 84.196C80.2389 84.496 80.4009 84.706 80.7249 84.826C81.0489 84.946 81.5649 85.06 82.2729 85.168C83.0649 85.3 83.7129 85.444 84.2169 85.6C84.7209 85.744 85.1589 86.014 85.5309 86.41C85.9029 86.806 86.0889 87.358 86.0889 88.066C86.0889 88.666 85.9089 89.2 85.5489 89.668C85.1889 90.136 84.6609 90.502 83.9649 90.766C83.2809 91.018 82.4649 91.144 81.5169 91.144ZM91.7274 81.172C93.2274 81.172 94.3794 81.532 95.1834 82.252C95.9874 82.96 96.3894 84.034 96.3894 85.474V91H93.7614V89.794C93.2334 90.694 92.2494 91.144 90.8094 91.144C90.0654 91.144 89.4174 91.018 88.8654 90.766C88.3254 90.514 87.9114 90.166 87.6234 89.722C87.3354 89.278 87.1914 88.774 87.1914 88.21C87.1914 87.31 87.5274 86.602 88.1994 86.086C88.8834 85.57 89.9334 85.312 91.3494 85.312H93.5814C93.5814 84.7 93.3954 84.232 93.0234 83.908C92.6514 83.572 92.0934 83.404 91.3494 83.404C90.8334 83.404 90.3234 83.488 89.8194 83.656C89.3274 83.812 88.9074 84.028 88.5594 84.304L87.5514 82.342C88.0794 81.97 88.7094 81.682 89.4414 81.478C90.1854 81.274 90.9474 81.172 91.7274 81.172ZM91.5114 89.254C91.9914 89.254 92.4174 89.146 92.7894 88.93C93.1614 88.702 93.4254 88.372 93.5814 87.94V86.95H91.6554C90.5034 86.95 89.9274 87.328 89.9274 88.084C89.9274 88.444 90.0654 88.732 90.3414 88.948C90.6294 89.152 91.0194 89.254 91.5114 89.254Z" fill="#1A78A5"/>
</svg>
