<svg width="120" height="120" viewBox="0 0 120 120" fill="none" xmlns="http://www.w3.org/2000/svg">
<rect width="120" height="120" fill="white"/>
<path d="M25.1047 47.502H27.7687V52.614C27.0847 53.13 26.2927 53.526 25.3927 53.802C24.4927 54.078 23.5867 54.216 22.6747 54.216C21.3667 54.216 20.1907 53.94 19.1467 53.388C18.1027 52.824 17.2807 52.05 16.6807 51.066C16.0927 50.07 15.7987 48.948 15.7987 47.7C15.7987 46.452 16.0927 45.336 16.6807 44.352C17.2807 43.356 18.1087 42.582 19.1647 42.03C20.2207 41.466 21.4087 41.184 22.7287 41.184C23.8327 41.184 24.8347 41.37 25.7347 41.742C26.6347 42.114 27.3907 42.654 28.0027 43.362L26.1307 45.09C25.2307 44.142 24.1447 43.668 22.8727 43.668C22.0687 43.668 21.3547 43.836 20.7307 44.172C20.1067 44.508 19.6207 44.982 19.2727 45.594C18.9247 46.206 18.7507 46.908 18.7507 47.7C18.7507 48.48 18.9247 49.176 19.2727 49.788C19.6207 50.4 20.1007 50.88 20.7127 51.228C21.3367 51.564 22.0447 51.732 22.8367 51.732C23.6767 51.732 24.4327 51.552 25.1047 51.192V47.502ZM35.0674 49.05L33.3754 50.814V54H30.4774V41.4H33.3754V47.286L38.9554 41.4H42.1954L36.9754 47.016L42.5014 54H39.0994L35.0674 49.05ZM55.2676 54L55.2496 46.44L51.5416 52.668H50.2276L46.5376 46.602V54H43.8016V41.4H46.2136L50.9296 49.23L55.5736 41.4H57.9676L58.0036 54H55.2676ZM60.993 41.4H63.909V54H60.993V41.4ZM71.0393 54.216C70.0433 54.216 69.0773 54.084 68.1413 53.82C67.2173 53.544 66.4733 53.19 65.9093 52.758L66.8993 50.562C67.4393 50.958 68.0813 51.276 68.8253 51.516C69.5693 51.756 70.3133 51.876 71.0573 51.876C71.8853 51.876 72.4973 51.756 72.8933 51.516C73.2893 51.264 73.4873 50.934 73.4873 50.526C73.4873 50.226 73.3673 49.98 73.1273 49.788C72.8993 49.584 72.5993 49.422 72.2273 49.302C71.8673 49.182 71.3753 49.05 70.7513 48.906C69.7913 48.678 69.0053 48.45 68.3933 48.222C67.7813 47.994 67.2533 47.628 66.8093 47.124C66.3773 46.62 66.1613 45.948 66.1613 45.108C66.1613 44.376 66.3593 43.716 66.7553 43.128C67.1513 42.528 67.7453 42.054 68.5373 41.706C69.3413 41.358 70.3193 41.184 71.4713 41.184C72.2753 41.184 73.0613 41.28 73.8293 41.472C74.5973 41.664 75.2693 41.94 75.8453 42.3L74.9453 44.514C73.7813 43.854 72.6173 43.524 71.4533 43.524C70.6373 43.524 70.0313 43.656 69.6353 43.92C69.2513 44.184 69.0593 44.532 69.0593 44.964C69.0593 45.396 69.2813 45.72 69.7253 45.936C70.1813 46.14 70.8713 46.344 71.7953 46.548C72.7553 46.776 73.5413 47.004 74.1533 47.232C74.7653 47.46 75.2873 47.82 75.7193 48.312C76.1633 48.804 76.3853 49.47 76.3853 50.31C76.3853 51.03 76.1813 51.69 75.7733 52.29C75.3773 52.878 74.7773 53.346 73.9733 53.694C73.1693 54.042 72.1913 54.216 71.0393 54.216ZM89.0014 44.172C89.9014 44.172 90.7174 44.382 91.4494 44.802C92.1934 45.21 92.7754 45.792 93.1954 46.548C93.6154 47.292 93.8254 48.162 93.8254 49.158C93.8254 50.154 93.6154 51.03 93.1954 51.786C92.7754 52.53 92.1934 53.112 91.4494 53.532C90.7174 53.94 89.9014 54.144 89.0014 54.144C87.6694 54.144 86.6554 53.724 85.9594 52.884V54H83.2774V40.644H86.0854V45.342C86.7934 44.562 87.7654 44.172 89.0014 44.172ZM88.5154 51.84C89.2354 51.84 89.8234 51.6 90.2794 51.12C90.7474 50.628 90.9814 49.974 90.9814 49.158C90.9814 48.342 90.7474 47.694 90.2794 47.214C89.8234 46.722 89.2354 46.476 88.5154 46.476C87.7954 46.476 87.2014 46.722 86.7334 47.214C86.2774 47.694 86.0494 48.342 86.0494 49.158C86.0494 49.974 86.2774 50.628 86.7334 51.12C87.2014 51.6 87.7954 51.84 88.5154 51.84ZM105.054 44.316L100.68 54.594C100.236 55.71 99.6835 56.496 99.0235 56.952C98.3755 57.408 97.5895 57.636 96.6655 57.636C96.1615 57.636 95.6635 57.558 95.1715 57.402C94.6795 57.246 94.2775 57.03 93.9655 56.754L94.9915 54.756C95.2075 54.948 95.4535 55.098 95.7295 55.206C96.0175 55.314 96.2995 55.368 96.5755 55.368C96.9595 55.368 97.2715 55.272 97.5115 55.08C97.7515 54.9 97.9675 54.594 98.1595 54.162L98.1955 54.072L94.0015 44.316H96.8995L99.6175 50.886L102.354 44.316H105.054ZM32.908 66.4C34.024 66.4 34.99 66.586 35.806 66.958C36.634 67.33 37.27 67.858 37.714 68.542C38.158 69.226 38.38 70.036 38.38 70.972C38.38 71.896 38.158 72.706 37.714 73.402C37.27 74.086 36.634 74.614 35.806 74.986C34.99 75.346 34.024 75.526 32.908 75.526H30.37V79H27.454V66.4H32.908ZM32.746 73.15C33.622 73.15 34.288 72.964 34.744 72.592C35.2 72.208 35.428 71.668 35.428 70.972C35.428 70.264 35.2 69.724 34.744 69.352C34.288 68.968 33.622 68.776 32.746 68.776H30.37V73.15H32.746ZM49.7322 74.194C49.7322 74.23 49.7142 74.482 49.6782 74.95H42.3522C42.4842 75.55 42.7962 76.024 43.2882 76.372C43.7802 76.72 44.3922 76.894 45.1242 76.894C45.6282 76.894 46.0722 76.822 46.4562 76.678C46.8522 76.522 47.2182 76.282 47.5542 75.958L49.0482 77.578C48.1362 78.622 46.8042 79.144 45.0522 79.144C43.9602 79.144 42.9942 78.934 42.1542 78.514C41.3142 78.082 40.6662 77.488 40.2102 76.732C39.7542 75.976 39.5262 75.118 39.5262 74.158C39.5262 73.21 39.7482 72.358 40.1922 71.602C40.6482 70.834 41.2662 70.24 42.0462 69.82C42.8382 69.388 43.7202 69.172 44.6922 69.172C45.6402 69.172 46.4982 69.376 47.2662 69.784C48.0342 70.192 48.6342 70.78 49.0662 71.548C49.5102 72.304 49.7322 73.186 49.7322 74.194ZM44.7102 71.296C44.0742 71.296 43.5402 71.476 43.1082 71.836C42.6762 72.196 42.4122 72.688 42.3162 73.312H47.0862C46.9902 72.7 46.7262 72.214 46.2942 71.854C45.8622 71.482 45.3342 71.296 44.7102 71.296ZM57.8477 78.532C57.5717 78.736 57.2297 78.892 56.8217 79C56.4257 79.096 56.0057 79.144 55.5617 79.144C54.4097 79.144 53.5157 78.85 52.8797 78.262C52.2557 77.674 51.9437 76.81 51.9437 75.67V71.692H50.4497V69.532H51.9437V67.174H54.7517V69.532H57.1637V71.692H54.7517V75.634C54.7517 76.042 54.8537 76.36 55.0577 76.588C55.2737 76.804 55.5737 76.912 55.9577 76.912C56.4017 76.912 56.7797 76.792 57.0917 76.552L57.8477 78.532ZM69.1799 69.316V79H66.5159V77.848C66.1439 78.268 65.6999 78.592 65.1839 78.82C64.6679 79.036 64.1099 79.144 63.5099 79.144C62.2379 79.144 61.2299 78.778 60.4859 78.046C59.7419 77.314 59.3699 76.228 59.3699 74.788V69.316H62.1779V74.374C62.1779 75.934 62.8319 76.714 64.1399 76.714C64.8119 76.714 65.3519 76.498 65.7599 76.066C66.1679 75.622 66.3719 74.968 66.3719 74.104V69.316H69.1799ZM75.6874 69.172C77.1874 69.172 78.3394 69.532 79.1434 70.252C79.9474 70.96 80.3494 72.034 80.3494 73.474V79H77.7214V77.794C77.1934 78.694 76.2094 79.144 74.7694 79.144C74.0254 79.144 73.3774 79.018 72.8254 78.766C72.2854 78.514 71.8714 78.166 71.5834 77.722C71.2954 77.278 71.1514 76.774 71.1514 76.21C71.1514 75.31 71.4874 74.602 72.1594 74.086C72.8434 73.57 73.8934 73.312 75.3094 73.312H77.5414C77.5414 72.7 77.3554 72.232 76.9834 71.908C76.6114 71.572 76.0534 71.404 75.3094 71.404C74.7934 71.404 74.2834 71.488 73.7794 71.656C73.2874 71.812 72.8674 72.028 72.5194 72.304L71.5114 70.342C72.0394 69.97 72.6694 69.682 73.4014 69.478C74.1454 69.274 74.9074 69.172 75.6874 69.172ZM75.4714 77.254C75.9514 77.254 76.3774 77.146 76.7494 76.93C77.1214 76.702 77.3854 76.372 77.5414 75.94V74.95H75.6154C74.4634 74.95 73.8874 75.328 73.8874 76.084C73.8874 76.444 74.0254 76.732 74.3014 76.948C74.5894 77.152 74.9794 77.254 75.4714 77.254ZM88.7767 69.172C89.9767 69.172 90.9427 69.532 91.6747 70.252C92.4187 70.972 92.7907 72.04 92.7907 73.456V79H89.9827V73.888C89.9827 73.12 89.8147 72.55 89.4787 72.178C89.1427 71.794 88.6567 71.602 88.0207 71.602C87.3127 71.602 86.7487 71.824 86.3287 72.268C85.9087 72.7 85.6987 73.348 85.6987 74.212V79H82.8907V65.644H85.6987V70.324C86.0707 69.952 86.5207 69.67 87.0487 69.478C87.5767 69.274 88.1527 69.172 88.7767 69.172Z" fill="#1AA520"/>
</svg>
