<svg width="25" height="24" viewBox="0 0 25 24" fill="none" xmlns="http://www.w3.org/2000/svg">
<path d="M21.8074 17.5312C21.063 16.7812 19.2602 15.6867 18.3855 15.2456C17.2465 14.6718 17.1527 14.6249 16.2574 15.2901C15.6602 15.734 15.2632 16.1306 14.5643 15.9815C13.8654 15.8324 12.3466 14.992 11.0168 13.6663C9.68693 12.3407 8.79771 10.7779 8.64818 10.0813C8.49865 9.38478 8.90177 8.99244 9.34146 8.39385C9.96115 7.5501 9.91427 7.40947 9.38458 6.27041C8.97162 5.38447 7.84521 3.59853 7.0924 2.85791C6.28708 2.06244 6.28708 2.20306 5.76818 2.41869C5.34573 2.59643 4.94044 2.81249 4.5574 3.06416C3.8074 3.56244 3.39115 3.97635 3.10005 4.59838C2.80896 5.22041 2.67818 6.67869 4.18146 9.40963C5.68474 12.1406 6.73943 13.537 8.9224 15.7138C11.1054 17.8907 12.784 19.0612 15.2379 20.4374C18.2735 22.1376 19.4379 21.8062 20.0618 21.5156C20.6857 21.2249 21.1015 20.8124 21.6007 20.0624C21.853 19.68 22.0695 19.2752 22.2476 18.8531C22.4636 18.336 22.6043 18.336 21.8074 17.5312Z" stroke="#F75F20" stroke-miterlimit="10"/>
</svg>
