<svg width="25" height="24" viewBox="0 0 25 24" fill="none" xmlns="http://www.w3.org/2000/svg">
<path d="M12.6667 2.25C8.94019 2.25 5.91675 5.12766 5.91675 8.67188C5.91675 12.75 10.4167 19.2127 12.0691 21.4448C12.1377 21.5391 12.2276 21.6157 12.3314 21.6686C12.4353 21.7215 12.5502 21.749 12.6667 21.749C12.7833 21.749 12.8982 21.7215 13.0021 21.6686C13.1059 21.6157 13.1958 21.5391 13.2644 21.4448C14.9167 19.2136 19.4167 12.7533 19.4167 8.67188C19.4167 5.12766 16.3933 2.25 12.6667 2.25Z" stroke="#F75F20" stroke-width="1.5" stroke-linecap="round" stroke-linejoin="round"/>
<path d="M12.6667 11.25C13.9094 11.25 14.9167 10.2426 14.9167 9C14.9167 7.75736 13.9094 6.75 12.6667 6.75C11.4241 6.75 10.4167 7.75736 10.4167 9C10.4167 10.2426 11.4241 11.25 12.6667 11.25Z" stroke="#F75F20" stroke-width="1.5" stroke-linecap="round" stroke-linejoin="round"/>
</svg>
