<svg width="80" height="80" viewBox="0 0 80 80" fill="none" xmlns="http://www.w3.org/2000/svg">
<path d="M40 80C62.0914 80 80 62.0914 80 40C80 17.9086 62.0914 0 40 0C17.9086 0 0 17.9086 0 40C0 62.0914 17.9086 80 40 80Z" fill="white"/>
<path d="M60 48.27C55.685 48.27 51.57 47.33 47.775 45.475C47.18 45.19 46.49 45.145 45.86 45.36C45.23 45.58 44.715 46.04 44.425 46.635L42.625 50.36C37.225 47.26 32.745 42.775 29.64 37.375L33.37 35.575C33.97 35.285 34.425 34.77 34.645 34.14C34.86 33.51 34.82 32.82 34.53 32.225C32.67 28.435 31.73 24.32 31.73 20C31.73 18.62 30.61 17.5 29.23 17.5H20C18.62 17.5 17.5 18.62 17.5 20C17.5 43.435 36.565 62.5 60 62.5C61.38 62.5 62.5 61.38 62.5 60V50.77C62.5 49.39 61.38 48.27 60 48.27Z" fill="#1A709E"/>
</svg>
