<svg width="512" height="512" viewBox="0 0 512 512" fill="none" xmlns="http://www.w3.org/2000/svg">
<g clip-path="url(#clip0)">
<path d="M334.117 0.425059C238.299 9.07706 229.026 192.854 187.701 287.012C167.223 333.67 118.929 381.806 127.443 436.794C137.048 498.829 200.34 516.869 249.126 510.934C369.849 496.249 422.025 369.881 429.923 250.133C434.792 176.304 450.223 -10.0589 334.117 0.425059V0.425059Z" fill="url(#paint0_linear)"/>
<path d="M334.117 0.425059C238.299 9.07706 229.026 192.854 187.701 287.012C167.223 333.67 118.929 381.806 127.443 436.794C137.048 498.829 200.34 516.869 249.126 510.934C369.849 496.249 422.025 369.881 429.923 250.133C434.792 176.304 450.223 -10.0589 334.117 0.425059V0.425059Z" fill="url(#paint1_linear)"/>
<path opacity="0.11" d="M253.375 161.106V146C253.375 140.477 248.898 136 243.375 136H239.375V102H254.375C259.898 102 264.375 97.523 264.375 92V68C264.375 62.477 259.898 58 254.375 58H188.375C182.852 58 178.375 62.477 178.375 68V92C178.375 97.523 182.852 102 188.375 102H204.375V136H200.531C200.531 136 190.531 140.269 190.375 145.792V161.106C117.468 175.559 62.375 239.987 62.375 317.292C62.375 351.312 73.051 382.835 91.226 408.707C79.723 417.586 72.306 431.5 72.306 447.155C72.306 473.97 94.044 495.707 120.858 496H145.093C162.571 495.707 177.885 486.468 186.436 472.612C197.749 475.162 209.516 476.516 221.6 476.516C309.538 476.516 380.825 405.229 380.825 317.291C380.826 239.988 325.733 175.559 252.67 161.106H253.375Z" fill="#1A3D73"/>
<path d="M222.375 76H257.375V128H222.375V76Z" fill="white"/>
<path d="M270.375 155V125C270.375 119.477 265.898 115 260.375 115H218.375C212.852 115 208.375 119.477 208.375 125V155H270.375Z" fill="#F75F20"/>
<path d="M398.822 296.29C398.822 384.23 327.542 455.52 239.602 455.52C151.662 455.52 80.3721 384.23 80.3721 296.29C80.3721 208.35 151.662 137.07 239.602 137.07C270.942 137.07 300.172 146.13 324.812 161.76C351.792 178.89 373.262 203.9 385.982 233.56C394.252 252.81 398.822 274.02 398.822 296.29V296.29Z" fill="white"/>
<path d="M359.992 296.29C359.992 362.78 306.092 416.69 239.602 416.69C173.112 416.69 119.212 362.78 119.212 296.29C119.212 229.8 173.112 175.9 239.602 175.9C260.322 175.9 279.812 181.14 296.842 190.35C323.042 204.54 343.392 228.17 353.312 256.68C357.642 269.08 359.992 282.41 359.992 296.29V296.29Z" fill="white"/>
<path d="M272.375 81H206.375C200.852 81 196.375 76.523 196.375 71V47C196.375 41.477 200.852 37 206.375 37H272.375C277.898 37 282.375 41.477 282.375 47V71C282.375 76.523 277.898 81 272.375 81Z" fill="#F75F20"/>
<path d="M141.714 302.19C144.971 302.19 147.612 299.549 147.612 296.292C147.612 293.035 144.971 290.394 141.714 290.394C138.457 290.394 135.816 293.035 135.816 296.292C135.816 299.549 138.457 302.19 141.714 302.19Z" fill="#1A3D73"/>
<path d="M337.489 290.394C340.746 290.394 343.387 293.035 343.387 296.292C343.387 299.549 340.746 302.19 337.489 302.19C334.232 302.19 331.591 299.549 331.591 296.292C331.591 293.034 334.232 290.394 337.489 290.394Z" fill="#1A3D73"/>
<path d="M239.601 192.507C242.858 192.507 245.499 195.148 245.499 198.405C245.499 201.662 242.858 204.303 239.601 204.303C236.344 204.303 233.703 201.662 233.703 198.405C233.703 195.147 236.344 192.507 239.601 192.507Z" fill="#1A3D73"/>
<path d="M239.601 388.282C242.858 388.282 245.499 390.923 245.499 394.18C245.499 397.437 242.858 400.078 239.601 400.078C236.344 400.078 233.703 397.437 233.703 394.18C233.703 390.922 236.344 388.282 239.601 388.282Z" fill="#1A3D73"/>
<path d="M154.828 351.134C158.085 351.134 160.726 348.493 160.726 345.236C160.726 341.979 158.085 339.338 154.828 339.338C151.571 339.338 148.93 341.979 148.93 345.236C148.93 348.493 151.571 351.134 154.828 351.134Z" fill="#1A3D73"/>
<path d="M324.374 253.246C327.631 253.246 330.272 250.605 330.272 247.348C330.272 244.091 327.631 241.45 324.374 241.45C321.116 241.45 318.476 244.091 318.476 247.348C318.476 250.605 321.116 253.246 324.374 253.246Z" fill="#1A3D73"/>
<path d="M154.828 253.246C158.085 253.246 160.726 250.605 160.726 247.348C160.726 244.091 158.085 241.45 154.828 241.45C151.571 241.45 148.93 244.091 148.93 247.348C148.93 250.605 151.571 253.246 154.828 253.246Z" fill="#1A3D73"/>
<path d="M324.374 351.134C327.631 351.134 330.272 348.493 330.272 345.236C330.272 341.979 327.631 339.338 324.374 339.338C321.116 339.338 318.476 341.979 318.476 345.236C318.476 348.493 321.116 351.134 324.374 351.134Z" fill="#1A3D73"/>
<path d="M190.657 205.621C193.914 205.621 196.555 208.262 196.555 211.519C196.555 214.776 193.914 217.417 190.657 217.417C187.4 217.417 184.759 214.776 184.759 211.519C184.759 208.261 187.4 205.621 190.657 205.621Z" fill="#1A3D73"/>
<path d="M288.545 375.167C291.802 375.167 294.443 377.808 294.443 381.065C294.443 384.322 291.802 386.963 288.545 386.963C285.288 386.963 282.647 384.322 282.647 381.065C282.647 377.807 285.288 375.167 288.545 375.167Z" fill="#1A3D73"/>
<path d="M288.545 205.621C291.802 205.621 294.443 208.262 294.443 211.519C294.443 214.776 291.802 217.417 288.545 217.417C285.288 217.417 282.647 214.776 282.647 211.519C282.647 208.261 285.288 205.621 288.545 205.621Z" fill="#1A3D73"/>
<path d="M190.657 375.167C193.914 375.167 196.555 377.808 196.555 381.065C196.555 384.322 193.914 386.963 190.657 386.963C187.4 386.963 184.759 384.322 184.759 381.065C184.759 377.807 187.4 375.167 190.657 375.167Z" fill="#1A3D73"/>
<path d="M239.601 296.292L224.822 281.513C223.66 280.351 223.143 278.692 223.44 277.075L236.157 207.748C236.859 203.922 242.343 203.922 243.045 207.748L255.762 277.075C256.059 278.692 255.542 280.351 254.38 281.513L239.601 296.292Z" fill="#3678D3"/>
<path d="M239.601 296.292L259.638 301.409C261.347 301.845 262.7 303.15 263.198 304.842L277.547 353.613C278.571 357.095 274.274 359.644 271.71 357.075L235.791 321.099C234.545 319.851 234.048 318.038 234.485 316.329L239.601 296.292Z" fill="#3678D3"/>
<path d="M254.118 298.624C255.424 290.568 249.952 282.979 241.896 281.673C233.84 280.367 226.25 285.839 224.944 293.895C223.639 301.951 229.111 309.54 237.167 310.846C245.223 312.152 252.812 306.68 254.118 298.624Z" fill="white"/>
<path d="M393.032 195.784C394.957 165.724 370.17 140.936 340.11 142.862C315.77 144.421 295.884 163.866 293.82 188.168C292.819 199.956 295.942 210.971 301.892 219.949L294.906 235.815C293.463 239.092 296.802 242.43 300.079 240.988L315.945 234.002C324.923 239.952 335.938 243.075 347.726 242.074C372.028 240.01 391.473 220.124 393.032 195.784V195.784Z" fill="#3678D3"/>
<path d="M324.367 197.513C327.454 197.513 329.957 195.01 329.957 191.923C329.957 188.836 327.454 186.333 324.367 186.333C321.28 186.333 318.777 188.836 318.777 191.923C318.777 195.01 321.28 197.513 324.367 197.513Z" fill="#1A3D73"/>
<path d="M344.277 197.513C347.364 197.513 349.867 195.01 349.867 191.923C349.867 188.836 347.364 186.333 344.277 186.333C341.19 186.333 338.687 188.836 338.687 191.923C338.687 195.01 341.19 197.513 344.277 197.513Z" fill="#1A3D73"/>
<path d="M364.187 197.513C367.274 197.513 369.777 195.01 369.777 191.923C369.777 188.836 367.274 186.333 364.187 186.333C361.1 186.333 358.597 188.836 358.597 191.923C358.597 195.01 361.1 197.513 364.187 197.513Z" fill="#1A3D73"/>
<path d="M162.584 475C189.629 475 211.503 452.865 211.078 425.723C210.661 399.101 188.36 378 161.735 378H138.375V475H162.584Z" fill="#F75F20"/>
<path d="M138.859 474.708C165.673 474.708 187.411 452.971 187.411 426.156C187.411 399.341 165.673 377.604 138.859 377.604C112.044 377.604 90.3069 399.341 90.3069 426.156C90.3069 452.971 112.044 474.708 138.859 474.708Z" fill="white"/>
<path d="M186.574 301H172.567C170.164 301 167.955 299.391 167.483 297.035C166.839 293.821 169.279 291 172.379 291H186.385C188.788 291 190.997 292.609 191.47 294.965C192.115 298.179 189.674 301 186.574 301Z" fill="#1A3D73"/>
<path d="M306.824 301H292.817C290.414 301 288.205 299.391 287.733 297.035C287.089 293.821 289.529 291 292.629 291H306.635C309.038 291 311.247 292.609 311.72 294.965C312.365 298.179 309.923 301 306.824 301V301Z" fill="#1A3D73"/>
<path d="M308.337 120.279C304.597 120.279 300.858 118.856 298.012 116.009C292.319 110.316 292.319 101.051 298.011 95.358C303.704 89.665 312.968 89.665 318.663 95.357C324.356 101.052 324.356 110.316 318.663 116.009C315.817 118.855 312.076 120.279 308.337 120.279ZM315.128 112H315.138H315.128ZM308.337 101.083C307.158 101.083 305.98 101.532 305.082 102.429C303.288 104.223 303.288 107.144 305.082 108.938C306.877 110.733 309.798 110.732 311.593 108.938C313.387 107.143 313.387 104.223 311.592 102.428C310.695 101.531 309.516 101.083 308.337 101.083V101.083Z" fill="#3678D3"/>
<path d="M420.59 242.277C416.557 242.277 412.773 240.653 409.985 237.713C404.784 232.231 404.698 223.427 409.791 217.844C415.433 211.66 425.063 211.495 430.915 217.349C436.609 223.043 436.609 232.307 430.915 238H430.916C430.915 238 430.915 238 430.915 238C428.157 240.758 424.49 242.277 420.59 242.277ZM420.59 223.145C418.559 223.145 416.529 224.477 415.934 227.136C415.848 227.519 415.844 227.922 415.924 228.306C416.453 230.836 418.405 232.348 420.59 232.348C421.82 232.348 422.975 231.869 423.844 231H424.26C424.817 231 425.282 230.575 425.349 230.023C425.91 225.43 423.253 223.145 420.59 223.145Z" fill="#3678D3"/>
<path d="M176.437 116H173.375V112.938C173.375 110.534 171.765 108.324 169.407 107.853C166.193 107.211 163.375 109.652 163.375 112.75V116H160.313C157.91 116 155.701 117.609 155.229 119.965C154.585 123.179 157.025 126 160.125 126H163.375V129.062C163.375 131.466 164.985 133.676 167.343 134.147C170.557 134.789 173.375 132.349 173.375 129.25V126H176.625C179.725 126 182.165 123.179 181.521 119.965C181.049 117.609 178.84 116 176.437 116V116Z" fill="#F75F20"/>
<path d="M232.437 488H229.375V484.938C229.375 482.534 227.765 480.325 225.407 479.853C222.193 479.211 219.375 481.651 219.375 484.75V488H216.313C213.91 488 211.701 489.609 211.229 491.965C210.585 495.179 213.025 498 216.125 498H219.375V501.062C219.375 503.466 220.985 505.675 223.343 506.147C226.557 506.789 229.375 504.348 229.375 501.25V498H232.625C235.725 498 238.166 495.179 237.521 491.965C237.049 489.609 234.84 488 232.437 488V488Z" fill="#F75F20"/>
<path d="M444.437 257H441.375V253.938C441.375 251.534 439.765 249.325 437.407 248.853C434.193 248.211 431.375 250.652 431.375 253.75V257H428.313C425.91 257 423.701 258.609 423.229 260.965C422.585 264.179 425.025 267 428.125 267H431.375V270.062C431.375 272.466 432.985 274.675 435.343 275.147C438.557 275.789 441.375 273.348 441.375 270.25V267H444.625C447.725 267 450.165 264.179 449.521 260.965C449.049 258.609 446.84 257 444.437 257Z" fill="#F75F20"/>
<path d="M215.375 64.2281V53.8551C215.375 51.4511 216.985 49.2421 219.343 48.7701C222.557 48.1281 225.375 50.5691 225.375 53.6671V64.4171C225.375 67.5161 222.554 69.9581 219.34 69.3131C216.984 68.8401 215.375 66.6311 215.375 64.2281V64.2281Z" fill="#1A3D73"/>
<path d="M234.375 64.2281V53.8551C234.375 51.4511 235.985 49.2421 238.343 48.7701C241.557 48.1281 244.375 50.5691 244.375 53.6671V64.4171C244.375 67.5161 241.554 69.9581 238.34 69.3131C235.984 68.8401 234.375 66.6311 234.375 64.2281V64.2281Z" fill="#1A3D73"/>
<path d="M254.375 64.2281V53.8551C254.375 51.4511 255.985 49.2421 258.343 48.7701C261.557 48.1281 264.375 50.5691 264.375 53.6671V64.4171C264.375 67.5161 261.554 69.9581 258.34 69.3131C255.984 68.8401 254.375 66.6311 254.375 64.2281V64.2281Z" fill="#1A3D73"/>
<path d="M387.493 224.839C393.52 216.653 397.339 206.768 398.022 196.103C399.032 180.342 393.228 164.92 382.101 153.792C370.974 142.664 355.547 136.867 339.79 137.871C329.125 138.554 319.239 142.374 311.053 148.401C299.663 142.885 287.842 138.754 276.375 136.028V124.791C275.67 117.015 269.722 110.606 262.375 109.865V86H272.375C280.659 86 287.375 79.284 287.375 71V47C287.375 38.716 280.659 32 272.375 32H206.375C198.091 32 191.375 38.716 191.375 47V71C191.375 79.284 198.091 86 206.375 86H217.375V109.866C209.479 110.606 203.532 117.016 203.375 124.792V136.067C130.272 152.549 75.376 218.126 75.376 296.292C75.376 328.726 84.768 359.946 102.566 386.823C91.963 396.614 85.307 410.62 85.307 426.156C85.307 434.805 87.424 443.4 91.431 451.028C92.655 453.357 95.471 454.523 97.893 453.496C100.632 452.335 101.735 449.112 100.37 446.542C97.057 440.302 95.306 433.253 95.306 426.156C95.306 401.035 116.684 380.814 142.202 382.73C163.496 384.328 180.686 401.519 182.284 422.812C184.199 448.331 163.978 469.708 138.858 469.708C131.611 469.708 124.437 467.893 118.112 464.459C115.597 463.092 112.426 464.11 111.194 466.741C110.029 469.228 111.248 472.167 113.687 473.43C118.102 475.716 125.376 477.489 130.973 478.614C135.577 479.539 140.256 480 144.952 480H152.13C160.43 480 168.66 478.517 176.43 475.6C187.033 471.619 200.998 465.167 206.688 457.201C217.459 459.392 228.519 460.516 239.601 460.516C330.156 460.516 403.827 386.845 403.827 296.291C403.826 271.233 398.323 247.204 387.493 224.839V224.839ZM340.429 147.851C353.32 147.025 365.935 151.768 375.03 160.864C384.126 169.96 388.868 182.571 388.042 195.464C386.642 217.342 369.128 235.238 347.304 237.091C337.067 237.963 327.183 235.45 318.707 229.833C317.876 229.282 316.913 229.001 315.945 229.001C315.261 229.001 314.575 229.141 313.93 229.425L300.597 235.296L306.468 221.964C307.154 220.406 307 218.606 306.06 217.187C300.443 208.71 297.933 198.822 298.802 188.591C300.654 166.767 318.551 149.252 340.429 147.851V147.851ZM201.375 71V47C201.375 44.239 203.614 42 206.375 42H272.375C275.136 42 277.375 44.239 277.375 47V71C277.375 73.761 275.136 76 272.375 76H206.375C203.614 76 201.375 73.761 201.375 71V71ZM252.375 86V110H227.375V86H252.375ZM213.374 125C213.374 122.243 215.611 120 218.361 120H260.375C263.136 120 265.375 122.239 265.375 125V134.329C256.852 132.973 248.179 132.275 239.374 132.275C230.527 132.275 221.845 132.992 213.374 134.352V125ZM85.376 296.686C85.376 211.646 154.561 142.461 239.601 142.461C261.758 142.461 283.05 147.04 302.983 156.056C296.473 163.177 291.809 172.003 289.782 181.755C278.514 176.826 266.625 173.6 254.344 172.161C251.274 171.796 248.494 174.331 248.782 177.609C248.993 180.014 251.027 181.836 253.424 182.122C265.682 183.585 277.508 187.001 288.641 192.239C288.513 202.348 291.106 212.09 296.249 220.755L290.447 233.931C289.091 237.011 289.379 240.659 291.469 243.297C294.059 246.566 298.371 247.6 302.093 245.96L315.534 240.042C323.993 245.063 333.478 247.657 343.332 247.657C343.577 247.657 343.824 247.645 344.07 247.641C351.312 263.027 354.994 279.518 354.994 296.688C354.994 360.316 303.228 412.082 239.6 412.082C230.863 412.082 222.171 411.091 213.73 409.159C206.491 388.145 186.534 373 163.094 373H153.052C134.445 351.914 124.208 324.872 124.208 296.688C124.208 238.052 168.07 188.777 226.235 182.07C228.978 181.754 230.945 179.273 230.629 176.53C230.313 173.787 227.847 171.824 225.089 172.135C161.877 179.425 114.208 232.97 114.208 296.688C114.208 324.441 123.345 351.175 140.106 373H138.86C138.858 373 138.856 373.001 138.854 373.001C128.467 373.002 118.769 375.986 110.551 381.126C94.081 356.015 85.376 326.918 85.376 296.686V296.686ZM170.975 468.98C183.982 459.201 192.411 443.645 192.411 426.156C192.411 408.667 183.982 393.111 170.974 383.331C191.238 387.051 206.646 404.832 206.646 426.156C206.647 447.479 191.239 465.259 170.975 468.98ZM239.601 450.517C230.307 450.517 221.033 449.676 211.954 448.035C214.96 441.35 216.647 433.948 216.647 426.155C216.647 423.899 216.49 421.679 216.218 419.495C223.896 420.942 231.734 421.684 239.601 421.684C308.744 421.684 364.995 365.433 364.995 296.29C364.995 278.79 361.472 261.936 354.537 246.108C364.288 244.08 373.113 239.417 380.234 232.907C389.25 252.842 393.827 274.135 393.827 296.289C393.826 381.332 324.641 450.517 239.601 450.517V450.517Z" fill="#1A3D73"/>
<path d="M221.286 285.048L222.552 286.314C220.828 289.247 219.822 292.65 219.822 296.292C219.822 303.725 223.947 310.206 230.024 313.585L229.639 315.092C228.771 318.493 229.772 322.149 232.251 324.632L268.17 360.608C269.83 362.272 271.975 363.131 274.154 363.131C275.64 363.131 277.144 362.731 278.523 361.914C281.923 359.897 283.458 355.994 282.342 352.202L267.993 303.433C267.003 300.064 264.274 297.432 260.873 296.564L259.372 296.181C259.352 292.582 258.353 289.217 256.648 286.314L257.913 285.049C260.237 282.725 261.27 279.408 260.679 276.174L247.961 206.847C247.208 202.744 243.769 199.879 239.598 199.879C235.427 199.879 231.99 202.745 231.238 206.847L218.52 276.176C217.93 279.408 218.963 282.725 221.286 285.048V285.048ZM239.601 286.513C244.994 286.513 249.38 290.9 249.38 296.292C249.38 301.684 244.993 306.071 239.601 306.071C234.209 306.071 229.823 301.684 229.823 296.292C229.823 290.9 234.209 286.513 239.601 286.513ZM271.088 349.376L239.329 317.566L239.712 316.065C247.097 316.023 253.531 311.915 256.893 305.869L258.4 306.254L271.088 349.376ZM239.601 216.687L250.845 277.978L249.579 279.244C246.645 277.52 243.242 276.514 239.601 276.514C235.96 276.514 232.557 277.52 229.623 279.244L228.358 277.979L239.601 216.687Z" fill="#1A3D73"/>
<path d="M150.566 442H131.557C132.095 440.589 132.375 439.077 132.375 437.522V431H138.609C141.012 431 143.221 429.391 143.693 427.035C144.337 423.821 141.897 421 138.797 421H132.375V413.128C132.375 412.429 132.661 411.75 133.174 411.275C138.009 406.794 143.761 410.678 143.003 415.507C142.881 416.284 143.068 417.095 143.633 417.641C147.944 421.807 153.071 418.824 153.071 414.645C153.071 401.994 137.682 392.868 124.638 405.004C123.185 406.356 122.376 408.269 122.376 410.253V421H119.99C119.325 421 118.679 421.274 118.231 421.765C114.347 426.027 117.299 431 121.416 431H122.377V437.855C122.377 438.325 122.205 438.791 121.859 439.109C118.379 442.307 118.506 448.159 123.317 451.247C124.124 451.765 125.084 451.999 126.043 451.999H151.467C152.537 451.999 153.571 451.523 154.221 450.673C157.373 446.546 154.503 442 150.566 442V442Z" fill="#1A3D73"/>
</g>
<defs>
<linearGradient id="paint0_linear" x1="449.793" y1="360.116" x2="150.502" y2="177.222" gradientUnits="userSpaceOnUse">
<stop stop-color="#D2DBFC" stop-opacity="0"/>
<stop offset="1" stop-color="#B8C1FB"/>
</linearGradient>
<linearGradient id="paint1_linear" x1="126.448" y1="256.001" x2="433.381" y2="256.001" gradientUnits="userSpaceOnUse">
<stop stop-color="#AECCEF" stop-opacity="0"/>
<stop offset="1" stop-color="#AECCEF"/>
</linearGradient>
<clipPath id="clip0">
<rect width="512" height="512" fill="white"/>
</clipPath>
</defs>
</svg>
