<svg width="512" height="512" viewBox="0 0 512 512" fill="none" xmlns="http://www.w3.org/2000/svg">
<g clip-path="url(#clip0)">
<path d="M284.869 10.8599C329.557 32.6029 341.378 86.1249 361.7 127.386C387.845 180.472 416.506 178.195 464.133 199.608C507.381 219.052 518.46 275.326 508.711 318.778C472.114 481.885 349.228 267.94 297.147 401.605C279.617 446.595 261.391 471.285 214.257 488.876C131.277 519.846 29.35 522.536 1.62202 420.666C-14.843 360.176 98.499 329.864 143.219 320.904C182.06 313.122 317.346 287.744 297.214 236.422C288.095 213.175 177.168 234.798 146.293 221.16C112.533 206.247 112.684 173.189 139.091 150.625C150.46 140.911 163.043 131.968 170.846 119.211C179.521 105.029 181.69 87.8579 183.528 71.3349C192.385 -8.25406 263.479 0.45294 284.869 10.8599V10.8599Z" fill="url(#paint0_linear)"/>
<path opacity="0.1" d="M432.509 460.845H79.491C68.445 460.845 59.491 451.891 59.491 440.845V119.155C59.491 108.109 68.445 99.155 79.491 99.155H432.51C443.556 99.155 452.51 108.109 452.51 119.155V440.846C452.509 451.891 443.555 460.845 432.509 460.845V460.845Z" fill="#1A3D73"/>
<path d="M432.509 436.845H79.491C68.445 436.845 59.491 427.891 59.491 416.845V95.155C59.491 84.109 68.445 75.155 79.491 75.155H432.51C443.556 75.155 452.51 84.109 452.51 95.155V416.846C452.509 427.891 443.555 436.845 432.509 436.845V436.845Z" fill="white"/>
<path d="M59.491 228.687V416.845C59.491 427.891 68.445 436.845 79.491 436.845H432.51C443.556 436.845 452.51 427.891 452.51 416.845V228.687H59.491Z" fill="white"/>
<path d="M289.544 436.845L285.626 418.839C284.773 414.917 282.29 411.546 278.799 409.564L216.725 374.355V353.182H181.713V374.355L119.639 409.564C116.148 411.546 113.665 414.917 112.819 418.839L108.899 436.845H289.544Z" fill="#3678D3"/>
<path d="M246.941 322.343C255.008 322.343 261.548 315.803 261.548 307.736C261.548 299.669 255.008 293.129 246.941 293.129C238.874 293.129 232.334 299.669 232.334 307.736C232.334 315.803 238.874 322.343 246.941 322.343Z" fill="#3678D3"/>
<path d="M151.498 322.343C159.565 322.343 166.105 315.803 166.105 307.736C166.105 299.669 159.565 293.129 151.498 293.129C143.431 293.129 136.891 299.669 136.891 307.736C136.891 315.803 143.431 322.343 151.498 322.343Z" fill="#3678D3"/>
<path d="M155.869 291.987L157.411 323.955C158.487 346.261 176.886 363.794 199.219 363.794C221.551 363.794 239.95 346.261 241.027 323.955L242.569 291.987C243.764 267.225 224.01 246.495 199.219 246.495C174.429 246.495 154.674 267.225 155.869 291.987Z" fill="#3678D3"/>
<path d="M321.503 144.221H452.509V228.687H321.503V144.221Z" fill="#F75F20"/>
<path d="M420.954 228.687L419.052 219.946C418.733 218.491 417.813 217.243 416.521 216.505L393.499 203.446V195.597H380.513V203.446L357.491 216.505C356.198 217.242 355.279 218.491 354.96 219.946L353.058 228.687H420.954Z" fill="white"/>
<path d="M370.93 173.934L371.502 185.79C371.901 194.063 378.725 200.565 387.007 200.565C395.289 200.565 402.113 194.063 402.512 185.79L403.084 173.934C403.527 164.751 396.201 157.063 387.007 157.063C377.813 157.062 370.487 164.75 370.93 173.934Z" fill="white"/>
<path d="M289.948 228.687L288.046 219.946C287.727 218.491 286.807 217.243 285.515 216.505L262.493 203.446V195.597H249.507V203.446L226.485 216.505C225.192 217.242 224.273 218.491 223.954 219.946L222.052 228.687H289.948Z" fill="#3678D3"/>
<path d="M239.924 173.934L240.496 185.79C240.895 194.063 247.719 200.565 256.001 200.565C264.283 200.565 271.107 194.063 271.506 185.79L272.078 173.934C272.521 164.751 265.195 157.063 256.001 157.063C246.807 157.062 239.48 164.75 239.924 173.934V173.934Z" fill="#3678D3"/>
<path d="M59.491 144.221H190.497V228.687H59.491V144.221Z" fill="#F75F20"/>
<path d="M158.942 228.687L157.04 219.946C156.721 218.491 155.801 217.243 154.509 216.505L131.487 203.446V195.597H118.501V203.446L95.479 216.505C94.186 217.242 93.267 218.491 92.948 219.946L91.046 228.687H158.942Z" fill="white"/>
<path d="M108.917 173.934L109.489 185.79C109.888 194.063 116.712 200.565 124.994 200.565C133.276 200.565 140.1 194.063 140.499 185.79L141.071 173.934C141.514 164.751 134.188 157.063 124.994 157.063C115.8 157.062 108.474 164.75 108.917 173.934Z" fill="white"/>
<path d="M452.509 144.221V95.155C452.509 84.109 443.555 75.155 432.509 75.155H79.491C68.445 75.155 59.491 84.109 59.491 95.155V144.222H452.509V144.221Z" fill="white"/>
<path d="M335.564 125.607H176.436C173.675 125.607 171.436 123.368 171.436 120.607V100.768C171.436 98.0071 173.675 95.7681 176.436 95.7681H335.563C338.324 95.7681 340.563 98.0071 340.563 100.768V120.607C340.564 123.369 338.325 125.607 335.564 125.607Z" fill="#3678D3"/>
<path d="M410.73 125.607H396.905C394.144 125.607 391.905 123.368 391.905 120.607V110.688C391.905 107.927 394.144 105.688 396.905 105.688H410.73C413.491 105.688 415.73 107.927 415.73 110.688V120.607C415.73 123.369 413.492 125.607 410.73 125.607Z" fill="#3678D3"/>
<path d="M398.818 115.648H384.993C382.232 115.648 379.993 113.409 379.993 110.648V100.729C379.993 97.968 382.232 95.729 384.993 95.729H398.818C401.579 95.729 403.818 97.968 403.818 100.729V110.648C403.818 113.409 401.579 115.648 398.818 115.648Z" fill="#3678D3"/>
<path d="M373.845 289.427V328.794C373.845 331.941 371.294 334.492 368.147 334.492H336.994L331.509 341.961C329.856 344.209 326.495 344.209 324.846 341.961L319.357 334.492H308.089C304.942 334.492 302.391 331.941 302.391 328.794V289.427C302.391 286.28 304.942 283.729 308.089 283.729H368.146C371.293 283.728 373.845 286.28 373.845 289.427V289.427Z" fill="#3678D3"/>
<path d="M328.239 260.633V300C328.239 303.147 330.79 305.698 333.937 305.698H365.09C372.258 315.458 374.818 316.451 382.727 305.698H393.995C397.142 305.698 399.693 303.147 399.693 300V260.633C399.693 257.486 397.142 254.935 393.995 254.935H333.938C330.79 254.935 328.239 257.486 328.239 260.633Z" fill="#3678D3"/>
<path d="M432.509 70.1541H143.846C141.085 70.1541 138.846 72.3921 138.846 75.1541C138.846 77.9161 141.085 80.1541 143.846 80.1541H432.509C440.78 80.1541 447.509 86.8831 447.509 95.1541V139.221H64.491V95.1541C64.491 86.8831 71.22 80.1541 79.491 80.1541H115.036C117.797 80.1541 120.036 77.9161 120.036 75.1541C120.036 72.3921 117.797 70.1541 115.036 70.1541H79.491C65.706 70.1541 54.491 81.3691 54.491 95.1541V416.845C54.491 430.63 65.706 441.845 79.491 441.845H432.51C446.295 441.845 457.51 430.63 457.51 416.845V332.366C457.51 329.604 455.271 327.366 452.51 327.366C449.749 327.366 447.51 329.604 447.51 332.366V416.845C447.51 425.116 440.781 431.845 432.51 431.845H79.491C71.22 431.845 64.491 425.116 64.491 416.845V233.688H447.51V303.557C447.51 306.319 449.749 308.557 452.51 308.557C455.271 308.557 457.51 306.319 457.51 303.557V95.1541C457.509 81.3691 446.294 70.1541 432.509 70.1541V70.1541ZM64.491 223.688V149.222H447.51V223.688H64.491Z" fill="#1A3D73"/>
<path d="M94.063 115.688C96.8244 115.688 99.063 113.45 99.063 110.688C99.063 107.927 96.8244 105.688 94.063 105.688C91.3016 105.688 89.063 107.927 89.063 110.688C89.063 113.45 91.3016 115.688 94.063 115.688Z" fill="#1A3D73"/>
<path d="M111.137 115.688C113.898 115.688 116.137 113.45 116.137 110.688C116.137 107.927 113.898 105.688 111.137 105.688C108.376 105.688 106.137 107.927 106.137 110.688C106.137 113.45 108.376 115.688 111.137 115.688Z" fill="#1A3D73"/>
<path d="M128.211 115.688C130.972 115.688 133.211 113.45 133.211 110.688C133.211 107.927 130.972 105.688 128.211 105.688C125.45 105.688 123.211 107.927 123.211 110.688C123.211 113.45 125.45 115.688 128.211 115.688Z" fill="#1A3D73"/>
<path d="M302.391 364.834C302.391 367.596 304.629 369.834 307.391 369.834H367.974C370.735 369.834 372.974 367.596 372.974 364.834C372.974 362.072 370.735 359.834 367.974 359.834H307.391C304.629 359.834 302.391 362.073 302.391 364.834V364.834Z" fill="#1A3D73"/>
<path d="M405.974 380.216H307.391C304.629 380.216 302.391 382.454 302.391 385.216C302.391 387.978 304.629 390.216 307.391 390.216H405.974C408.735 390.216 410.974 387.978 410.974 385.216C410.974 382.454 408.735 380.216 405.974 380.216V380.216Z" fill="#1A3D73"/>
<path d="M405.974 400.598H307.391C304.629 400.598 302.391 402.836 302.391 405.598C302.391 408.36 304.629 410.598 307.391 410.598H405.974C408.735 410.598 410.974 408.36 410.974 405.598C410.974 402.836 408.735 400.598 405.974 400.598V400.598Z" fill="#1A3D73"/>
<path d="M362.558 310.699L366.547 316.13C368.262 318.462 371.013 319.855 373.908 319.855H373.913C376.808 319.853 379.558 318.459 381.267 316.129L385.257 310.699H393.995C399.894 310.699 404.693 305.9 404.693 300.001V260.633C404.693 254.734 399.894 249.935 393.995 249.935H333.938C328.039 249.935 323.24 254.734 323.24 260.633V300.001C323.24 305.9 328.039 310.699 333.938 310.699H362.558ZM333.239 300.001V260.633C333.239 260.248 333.552 259.935 333.937 259.935H393.994C394.379 259.935 394.692 260.248 394.692 260.633V300.001C394.692 300.386 394.379 300.699 393.994 300.699H382.726C381.135 300.699 379.639 301.456 378.697 302.738L373.906 309.258L369.119 302.739C368.177 301.457 366.681 300.699 365.089 300.699H333.937C333.552 300.699 333.239 300.386 333.239 300.001V300.001Z" fill="#1A3D73"/>
<path d="M362.24 55.38C360.96 55.38 359.681 54.892 358.704 53.915L348.204 43.415C346.251 41.463 346.251 38.297 348.204 36.345L358.704 25.845C360.657 23.892 363.822 23.892 365.775 25.845L376.275 36.345C378.228 38.297 378.228 41.463 376.275 43.415L365.775 53.915C364.799 54.892 363.52 55.38 362.24 55.38ZM358.812 39.88L362.241 43.309L365.67 39.88L362.241 36.451L358.812 39.88Z" fill="#3678D3"/>
<path d="M32.193 375.334C30.913 375.334 29.634 374.846 28.657 373.869L18.157 363.369C16.204 361.417 16.204 358.251 18.157 356.299L28.657 345.799C30.61 343.846 33.775 343.846 35.728 345.799L46.228 356.299C48.181 358.251 48.181 361.417 46.228 363.369L35.728 373.869C34.752 374.846 33.473 375.334 32.193 375.334ZM28.764 359.834L32.193 363.263L35.622 359.834L32.193 356.405L28.764 359.834Z" fill="#3678D3"/>
<path d="M276.38 483.581C275.1 483.581 273.821 483.093 272.844 482.116C270.891 480.164 270.891 476.998 272.844 475.046L282.844 465.046C284.797 463.093 287.962 463.093 289.915 465.046C291.868 466.998 291.868 470.164 289.915 472.116L279.915 482.116C278.939 483.093 277.66 483.581 276.38 483.581Z" fill="#F75F20"/>
<path d="M405.974 53.4189C404.694 53.4189 403.415 52.9309 402.438 51.9539C400.485 50.0019 400.485 46.8359 402.438 44.8839L412.438 34.8839C414.391 32.9309 417.556 32.9309 419.509 34.8839C421.462 36.8359 421.462 40.0019 419.509 41.9539L409.509 51.9539C408.533 52.9309 407.253 53.4189 405.974 53.4189Z" fill="#F75F20"/>
<path d="M473.807 398.77C472.527 398.77 471.248 398.282 470.271 397.305C468.318 395.353 468.318 392.187 470.271 390.235L480.271 380.235C482.224 378.282 485.389 378.282 487.342 380.235C489.295 382.187 489.295 385.353 487.342 387.305L477.342 397.305C476.366 398.281 475.087 398.77 473.807 398.77Z" fill="#F75F20"/>
</g>
<defs>
<linearGradient id="paint0_linear" x1="0.00179076" y1="256" x2="512.001" y2="256" gradientUnits="userSpaceOnUse">
<stop stop-color="#AECCEF" stop-opacity="0"/>
<stop offset="1" stop-color="#AECCEF"/>
</linearGradient>
<clipPath id="clip0">
<rect width="512" height="512" fill="white"/>
</clipPath>
</defs>
</svg>
